<?xml version="1.0" encoding="UTF-8"?>
<svg version="1.1" viewBox="0 0 100 100" xmlns="http://www.w3.org/2000/svg">
 <g fill="none" stroke="#000" stroke-width="1px">
  <path d="m20.182 86.037c3.9707-1.661 1.0428-0.20238 4.2885-10.115 0.57942-1.7696 0.94434-3.6033 1.4835-5.3856 4.9494-15.573 1.3531-4.0188 4.5323-14.641 0.96939-3.2095 1.9388-6.419 2.9082-9.6286 0.51576-1.9779 0.96877-3.9733 1.5473-5.9338 1.0731-3.6367 2.3752-7.2042 3.4062-10.853 0.27298-0.96608 0.27766-1.9909 0.49967-2.97 0.35756-1.5768 0.81834-3.1284 1.2373-4.69 0.13799-0.51432 0.59939-2.2097 0.87608-2.6497 0.06026-0.09582 0.0791 0.21703 0.15187 0.30373 0.61562 0.73347 0.9522 0.699 1.3644 1.7259 0.16202 0.40363 3.8965 10.793 4.3689 12.209 1.4526 4.3528 2.8162 8.735 4.2636 13.09 0.42435 1.2767 0.83442 2.5611 1.3511 3.8033 0.86281 2.0743 1.8977 4.0734 2.784 6.1378 0.47983 1.1177 0.85276 2.2787 1.3127 3.4047 0.93205 2.2183 1.8641 4.4366 2.7961 6.6549 0.41744 0.91318 0.86241 1.8143 1.2523 2.7395 1.7564 4.168 0.38599 1.3714 1.3255 3.2506 0.05159 0.10318 0.09098 0.21342 0.15475 0.30955 0.26149 0.39412 0.57975 0.75066 0.81927 1.1585 0.50828 0.86549 1.6791 3.5218 1.9088 4.176 0.13289 0.37861 0.10802 0.79723 0.21012 1.1853 0.19725 0.74967 0.47811 1.4753 0.68637 2.2219 0.03362 0.12052 0.2454 1.335 0.3377 1.5197 0.07119 0.14239 0.22513 0.22513 0.3377 0.3377"/>
  <path d="m22.613 54.024c6.4263-1.0483 1.073-0.20952 11.346-1.5993 1.2065-0.16321 2.4073-0.36835 3.6157-0.51653 0.83728-0.10267 1.6816-0.13971 2.5197-0.23582 2.019-0.23154 4.0251-0.58328 6.0508-0.74702 1.0601-0.08569 2.1272 0 3.1908 0h3.8677 16.755"/>
 </g>
</svg>
