<?xml version="1.0" encoding="UTF-8"?>
<svg version="1.1" viewBox="0 0 100 150" xmlns="http://www.w3.org/2000/svg">
 <g fill="none" stroke="#000" stroke-linecap="round" stroke-linejoin="round" stroke-width="5">
  <path d="m17.873 135.66c-0.05472-0.48803-0.23805-0.97842-0.16415-1.4641 0.19092-1.2547 0.61857-2.4648 0.94875-3.692 0.76096-2.8284 0.5959-2.0161 1.6603-5.0447 1.2283-3.495 2.3488-7.0255 3.6308-10.503 0.79741-2.163 1.5518-4.3422 2.4266-6.4769 0.59789-1.4589 1.3444-2.8565 1.9887-4.2967 0.95529-2.1353 1.9104-4.2712 2.8098-6.4292 0.83417-2.0015 1.5847-4.0348 2.3901-6.0472 0.81232-2.0297 1.6562-4.0474 2.4632-6.0791 0.31823-0.80116 0.64864-1.5993 0.9123-2.4189 0.63202-1.9646 1.6883-5.7127 2.3171-8.0046 0.65466-2.3861 1.3222-4.7689 1.9523-7.1612 2.7846-10.572 0.46935-1.8976 2.1347-8.8003 0.47058-1.9505 0.98025-3.8919 1.4596-5.8404 0.45115-1.8337 0.86696-3.6757 1.3319-5.5062 2.3056-9.0772-1.9295 8.8413 1.6786-7.018 0.41709-1.8333 0.85546-3.662 1.2954-5.4903 0.18043-0.74983 0.40536-1.4897 0.56566-2.2438 0.59815-1.5736 0.53396-3.2507 0.83924-4.8696 0.50949-2.7017 1.2177-5.3702 1.6604-8.0842 0.11554-0.77978 0.23109-1.5596 0.34664-2.3393 0.01824-0.31828 0.01584-0.6383 0.05472-0.95483-0.01757-0.59747 0.23119-1.1528 0.31019-1.7346 0.07011-0.5163 0.05322-1.1173 0.21894-1.6232 0.04637-0.14156 0 0.29705 0 0.44558 0 0.73203-0.01322 1.4642 0 2.1961 0.01108 0.61569-0.03009 1.2384 0.07298 1.846 0.56208 3.3134 1.0195 4.5077 1.9523 7.5113 0.5651 1.8196 1.1145 3.6439 1.6968 5.4584 0.29958 0.93348 0.6325 1.8566 0.94875 2.7849 0.69333 2.1218 1.407 4.2376 2.08 6.3655 0.44608 1.4104 0.84339 2.8349 1.2771 4.249 0.67922 2.2143 1.3925 4.4188 2.0617 6.6361 0.96767 3.2062 1.8603 6.7919 2.5361 9.978 0.29032 1.3686 0.48429 2.7551 0.69328 4.1376 0.99353 6.5723 0.6509 5.0088 1.4414 10.01 2.032 12.855 0.0192 0.33273 2.4996 13.622 1.2547 6.7226 0.15545 2.8809 2.007 10.233 0.95282 3.7832 1.9469 7.5584 3.0652 11.299 1.0878 3.6383 2.2226 7.2654 3.3207 10.901 1.4658 4.8531-0.53485-1.9696 1.4961 5.1879 1.2903 4.5472-0.66277-2.5956 1.0764 3.7079 0.14594 0.52891 0.27552 1.062 0.41962 1.5914 0.09162 0.33659 0.40606 1.3374 0.45615 1.5755 0.10764 0.51169 0.09686 1.0101 0.10951 1.5277"/>
  <path d="m25.244 61.85c1.192 0.62595 2.2801 1.4921 3.5761 1.8778 1.5499 0.4613 4.7932 0.42644 6.6231 0.42968 2.1651 0.0038 4.3302 0 6.4954 0 4.1336 0 8.2584 0.06093 12.37 0.50924 2.0694 0.22562 4.133 0.50016 6.2034 0.71612 2.4193 0.25234 4.8834 0.37187 7.3163 0.41376 1.1128 0.01915 2.2259 0.01238 3.3389 0.01592 0.55343 0.0017 1.1116 0.07027 1.6603 0 1.1976-0.1534 2.3808-0.40513 3.5579-0.66838 3.1321-0.70048 2.8494-0.89289 5.3459-1.2413 0.58955-0.08227 2.3201-0.27821 3.2112-0.31828 0.29166-0.01312 1.1289-0.15697 0.87577-0.01592-0.45728 0.25482-1.0217 0.25463-1.5326 0.38194"/>
 </g>
</svg>
