<?xml version="1.0" encoding="UTF-8"?>
<svg width="100" height="150" version="1.1" viewBox="0 0 100 150" xmlns="http://www.w3.org/2000/svg">
 <g aria-label="30">
  <path d="m31.128 76.704v-4.6875h3.4912q3.0518 0 4.541-1.5137 1.5137-1.5381 1.5137-3.9307 0-5.3467-5.3955-5.3467-2.3682 0-3.9307 1.3428-1.5625 1.3428-1.5625 3.6377h-5.9082q0-4.2236 3.1738-6.9824 3.1982-2.7588 8.1299-2.7588 5.1025 0 8.252 2.5635 3.1494 2.5391 3.1494 7.5439 0 2.0996-1.3672 4.2725-1.3428 2.1484-4.1016 3.3936 3.2715 1.0986 4.6387 3.3936 1.3672 2.2705 1.3672 4.9072 0 5.0049-3.418 7.7393-3.418 2.71-8.5205 2.71-4.6143 0-8.1299-2.5391-3.5156-2.5391-3.5156-7.4951h5.9326q0 2.3438 1.5869 3.8086 1.5869 1.4648 4.2236 1.4648 2.7588 0 4.3213-1.4648 1.5869-1.4893 1.5869-4.2236 0-5.835-6.7871-5.835z"/>
  <path d="m75.83 77.51q0 8.4473-3.1738 11.963-3.1494 3.5156-8.4229 3.5156-5.1514 0-8.374-3.418-3.1982-3.418-3.2959-11.548v-6.25q0-8.4717 3.1982-11.89 3.1982-3.418 8.4229-3.418 5.249 0 8.4229 3.3936 3.1982 3.3936 3.2227 11.768zm-5.9082-6.6406q0-5.3711-1.4893-7.4951-1.4893-2.1484-4.248-2.1484-2.6855 0-4.1748 2.0996-1.4893 2.0996-1.5137 7.3486v7.6904q0 5.3955 1.4893 7.6416 1.5137 2.2217 4.248 2.2217t4.1992-2.1973q1.4648-2.1973 1.4893-7.4707z"/>
 </g>
</svg>
