<?xml version="1.0" encoding="UTF-8"?>
<svg width="100" height="150" version="1.1" viewBox="0 0 100 150" xmlns="http://www.w3.org/2000/svg">
 <g aria-label="20">
  <path d="m48.169 87.739v4.7607h-23.926v-4.1016l11.572-12.598q2.9297-3.2471 3.9795-5.1758 1.0498-1.9531 1.0498-3.7598 0-2.4414-1.3916-4.0283-1.3672-1.6113-3.9062-1.6113-3.0273 0-4.541 1.8555-1.5137 1.8311-1.5137 4.6875h-5.9326q0-4.6631 3.1494-7.9834 3.1494-3.3203 8.9111-3.3203 5.3223 0 8.2275 2.6611 2.9297 2.6611 2.9297 7.1045 0 3.2715-2.002 6.4453-1.9775 3.1494-5.1514 6.5186l-7.9834 8.5449z"/>
  <path d="m75.83 77.51q0 8.4473-3.1738 11.963-3.1494 3.5156-8.4229 3.5156-5.1514 0-8.374-3.418-3.1982-3.418-3.2959-11.548v-6.25q0-8.4717 3.1982-11.89 3.1982-3.418 8.4229-3.418 5.249 0 8.4229 3.3936 3.1982 3.3936 3.2227 11.768zm-5.9082-6.6406q0-5.3711-1.4893-7.4951-1.4893-2.1484-4.248-2.1484-2.6855 0-4.1748 2.0996-1.4893 2.0996-1.5137 7.3486v7.6904q0 5.3955 1.4893 7.6416 1.5137 2.2217 4.248 2.2217t4.1992-2.1973q1.4648-2.1973 1.4893-7.4707z"/>
 </g>
</svg>
