<?xml version="1.0" encoding="UTF-8"?>
<svg version="1.1" viewBox="0 0 100 100" xmlns="http://www.w3.org/2000/svg">
 <g fill="none" stroke="#000" stroke-width="1px">
  <path d="m42.474 81.818c0.02931-0.91508 0.08068-1.8297 0.08793-2.7452 0.02206-2.7838 0-5.5679 0-8.3518v-17.256-13.346-13.596c0-0.62093-0.01868-0.41627 0.16885-1.3539 0.04551-0.22756 0.13546-0.44576 0.16885-0.6754 0.08607-0.59188 0.14598-1.1878 0.18884-1.7844 0.02016-0.2807-0.04309-0.56616 0-0.84425 0.38214-2.4663 0.34083-0.5455 0.34083-1.8636v-1.182c0-0.15778-0.0393-0.19913 0.12474-0.29148 0.20868-0.11748 0.42412-0.22524 0.64799-0.31028 0.05262-0.01999 0.11425 0.01365 0.16885 0 0.39752-0.09938 0.77881-0.2644 1.182-0.3377 0.2215-0.04027 0.45027 0 0.6754 0h1.6885c0.9399 0 1.042-0.04884 2.1951 0.3377 0.36831 0.12347 0.68532 0.36807 1.0423 0.52118 1.8843 0.8081 0.85224 0.08163 2.2153 1.1905 1.5925 1.2955 2.5416 1.9198 3.7578 3.6292 0.60431 0.84936 1.1342 1.7575 1.5713 2.7038 0.2193 0.47481 0.29424 1.0063 0.38053 1.5222 0.3573 2.1358 0.65224 4.3865 0.03389 6.5213-0.13898 0.47982-0.48868 0.87149-0.74235 1.3018-0.82649 1.4021-1.8925 3.5672-3.2955 4.6563-0.80657 0.62614-1.7623 1.0321-2.6551 1.5278-0.73299 0.40695-3.1545 1.5273-3.4496 1.6508-0.21406 0.08962-0.46784 0.06507-0.6754 0.16885-2.7501 1.3751-0.17928 0.27924-2.2183 1.5382-0.4338 0.26785-0.91136 0.4573-1.3671 0.68578-0.1072 0.05374-0.21039 0.11648-0.32179 0.16087-0.16326 0.06507-0.34304 0.08806-0.5002 0.16674-0.40576 0.20314-0.76886 0.48763-1.182 0.6754-0.21126 0.09603-0.46784 0.06507-0.6754 0.16885-1.5319 0.76594-0.45323 0.6754-1.5028 0.6754"/>
  <path d="m43.109 47.016c1.137-0.17591 1.8742-0.36832 3.0366-0.2323 0.46098 0.05394 0.89856 0.23334 1.3508 0.3377 1.3246 0.30568 0.6561 0.01856 2.3686 0.67853 0.53086 0.20458 1.0343 0.57444 1.5228 0.84582 0.22003 0.12224 0.4692 0.19336 0.6754 0.3377 0.36012 0.25209 0.67311 0.56561 1.0131 0.84425 0.28379 0.23258 0.57626 0.45451 0.85819 0.68935 1.197 0.99708 0.90234 0.72882 1.6978 1.5243 0.16885 0.16885 0.35368 0.32311 0.50655 0.50655 0.40701 0.48841 0.73432 1.3077 0.84425 1.8574 0.15009 0.75045-0.06432 1.0453 0 1.6885 0.28029 2.8029 0.16885-0.88085 0.16885 3.5459v1.6885c0 0.3377 0.04485 0.67839 0 1.0131-0.06957 0.51918-0.22283 1.0237-0.34129 1.534-0.0528 0.22746-0.09365 0.45915-0.17244 0.67897-0.21626 0.60338-0.46332 1.1954-0.71123 1.7865-0.2144 0.51119-0.44602 1.015-0.6754 1.5197-0.05208 0.11457-0.12466 0.21986-0.16885 0.3377-0.12499 0.3333-0.1904 0.68904-0.3377 1.0131-0.1358 0.29877-0.3377 0.56284-0.50655 0.84425-0.89241 1.4873-0.08143 0.22114-1.182 1.6885-0.12176 0.16235-0.20407 0.35383-0.3377 0.50655-0.26208 0.29951-0.57985 0.5468-0.84425 0.84425-0.5086 0.57217-0.86604 1.2649-1.3508 1.8574-0.20162 0.24642-0.47379 0.42898-0.6754 0.6754-0.3066 0.37473-0.53766 0.80723-0.84425 1.182-0.20162 0.24642-0.47993 0.42408-0.6754 0.6754-0.20149 0.25906-0.3158 0.5772-0.50655 0.84425-0.17712 0.24796-0.46893 0.40794-0.65149 0.6515-0.79258 1.0574 0.31002-0.15256-1.1705 1.328-0.16885 0.16885-0.31249 0.36741-0.50655 0.50655-0.0361 0.02589-0.09152-0.01518-0.13328 0-0.26887 0.09774-0.54202 0.1928-0.78992 0.33559-0.24905 0.14345-0.45161 0.35653-0.69012 0.5169-0.05141 0.41676-0.30888 0.09389-0.45074 0.16885-0.0565 0.02985-0.07445 0.11682-0.13554 0.13556-0.17695 0.05429-0.38349-0.0689-0.55528 0-0.07295 0.02926-0.11117 0.11115-0.16675 0.16673"/>
  <path d="m6.7629 5.8721c2.1899-0.84936 0.98331-0.43114 5.3131-1.3198 0.42354-0.086931 0.86145-0.094597 1.283-0.19056 0.64229-0.1462 1.2575-0.4008 1.9025-0.53454 0.22044-0.045711 0.45027 0 0.6754 0h2.7016 5.7932 15.704 7.0745 0.84425c0.3377 0 0.67747 0.037293 1.0131 0 0.1769-0.019655 0.33062-0.14194 0.50655-0.16885 0.56321-0.08616 1.1429-0.053702 1.7009-0.16885 0.3139-0.064777 0.57286-0.31479 0.88931-0.36567 2.9602-0.47591 1.5538 0.094438 3.2858-0.3408 0.62411-0.15683 1.2249-0.41918 1.8621-0.50967 0.56976-0.080923 1.151 0 1.7264 0h2.8536 4.7256 8.137c1.1618 0 2.325-0.058043 3.4853 0 0.39967 0.019993 0.79107 0.1222 1.1881 0.17195 0.50978 0.063869 1.0195 0.13253 1.532 0.16885 0.28277 0.020041 0.56949-0.037783 0.85044 0 1.0904-1.0992 1.3661 0.39898 2.0664 0.51569 0.22207 0.037012 0.45201-0.027924 0.6754 0 0.23027 0.028784 0.44494 0.14169 0.6754 0.16885 0.75285 0.088739 1.5125 0.10622 2.2672 0.178 0.47209 0.044899 0.9399 0.12962 1.4122 0.17194 0.16818 0.01507 0.34274-0.040952 0.50655 0 0.4479 0.11198 0.8865 0.41322 1.3508 0.50655 0.10897 0.021905 0.22743-0.033368 0.33346 0 0.06888 0.021676 0.09432 0.11134 0.15319 0.15316 0.08847 0.062853 0.18532 0.11432 0.28469 0.15794 0.40188 0.17644 0.91352 0.37537 1.3508 0.50655 0.39247 0.11774 0.79687 0.19767 1.182 0.3377 0.097 0.035273 1.1241 0.5334 1.3153 0.66357 0.06458 0.043957 0.11048 0.11049 0.16572 0.16573 0.11049 0.11049 0.24385 0.20209 0.33148 0.33147 0.02952 0.04359 0 0.10529 0 0.15794 0 0.14465-0.04898 0.29785 0 0.43396 0.06852 0.19039 0.26662 0.31498 0.3377 0.50443 0.11548 0.30779 0.30588 1.8437 0.3356 2.022 0.04718 0.28309 0.12819 0.56016 0.16885 0.84425 0.01585 0.11074 0 0.22373 0 0.33559v0.8114 2.5328 11.82 38.885 2.2012c0 0.28142-0.07757 0.57374 0 0.84425 0.15363 0.53576 0.52647 0.99174 0.6801 1.5275 0.07757 0.27052 0 0.56284 0 0.84425v1.5197 4.217 6.9229 2.3639c0 0.28142 0.03579 0.56512 0 0.84425-0.08214 0.64058-0.26512 1.2653-0.35254 1.9051-0.10404 0.76153 0.24485 1.4523 0.3377 2.1951 0.08301 0.66411-0.28048 2.1211-0.34397 2.3733-0.07427 0.29506-0.25174 0.55599-0.33927 0.84739-0.08256 0.27486-0.0781 0.57199-0.16885 0.84425-0.66275 1.9882-0.07165 0.12074-0.4993 0.83699-0.01864 0.03121 0.02707 0.0848 0 0.10907-0.25583 0.22936-0.53049 0.43936-0.81931 0.62547-0.44211 0.28489-0.83766 0.42103-1.3508 0.50655-0.11104 0.01851-0.2256-0.01019-0.3377 0-0.50758 0.04614-1.0113 0.13254-1.5197 0.16885-0.2807 0.02005-0.56284 0-0.84425 0h-2.4489-0.85044c-0.39398 0-0.79101-0.04887-1.182 0-0.07898 0.0099-0.08948 0.16283-0.16885 0.16885-0.68401 0.05187-1.3719 0-2.0579 0h-1.4863c-0.85185 0-1.7064-0.06757-2.5556 0-1.6917 0.1346-1.2224 0.299-2.3639 0.50655-2.085 0.3791-0.51704-0.05774-3.4934 0.34685-0.71471 0.09715-1.4034 0.36022-2.1218 0.42463-2.637 0.23645-4.8316 0.20157-7.388 0.20157h-6.288-10.246-2.968c-0.45027 0-0.90221 0.03882-1.3508 0-1.0336-0.08945-2.0583-0.2625-3.0886-0.3842-0.61951-0.07318-1.253-0.0597-1.8607-0.20044-1.1213-0.25967-1.9653-0.80457-3.0723-0.91528-0.28002-0.028-0.56284 0-0.84425 0h-1.5553c-0.45027 0-0.90151 0.02953-1.3508 0-0.40897-0.02688-0.81219-0.11073-1.2179-0.16885-1.1879-0.17017-2.3728-0.36281-3.5631-0.51553-1.0104-0.12964-2.0375-0.15729-3.0335-0.37111-0.57237-0.12288-1.0691-0.49623-1.6386-0.6319-0.82121-0.19564-1.6776-0.20083-2.5074-0.35585-0.4101-0.07661-0.795-0.26141-1.2052-0.3377-3.1549-0.58679-0.2919 0.03656-2.3818-0.17243-0.28557-0.02856-0.55844-0.14287-0.84425-0.16885-0.33632-0.03057-0.6754 0-1.0131 0h-3.377-2.2105c-0.90116 0-1.4075 0.13055-2.2158-0.3377-0.59497-0.34466-0.99929-0.78762-1.3555-1.3571-0.1335-0.21339-0.21546-0.45537-0.3377-0.6754-0.15938-0.28689-0.35954-0.55084-0.50655-0.84425-0.024899-0.04969 0.00556-0.11144 0-0.16675-0.056284-0.50444-0.11257-1.0089-0.16885-1.5133 0-0.16885 0.016801-0.33854 0-0.50655-0.039601-0.39601-0.11257-0.78797-0.16885-1.182-0.11361-0.56544-0.28305-1.1225-0.34083-1.6963-0.056389-0.56 0.021707-1.1261 0-1.6885-0.037584-0.97378-0.094566-1.9472-0.1778-2.9181-0.36628-4.273-0.13252 1.9357-0.38371-4.6008-0.019192-0.49944 0-0.99961 0-1.4994v-2.0864-10.533-24.756-14.86-3.7484c0-0.92441-0.089616-1.8532 0-2.7732 0.10639-1.0923 0.43096-2.1534 0.5857-3.24 0.056284-0.68611 0.11257-1.3722 0.16885-2.0583 0.056284-0.11257 0.13833-0.2156 0.16885-0.3377 0.083034-0.33214 0.041702-0.69523 0.16885-1.0131 0.10452-0.26129 0.3807-0.4237 0.50655-0.6754 0.15919-0.31839 0.19313-0.68782 0.3377-1.0131 0.082419-0.18544 0.23702-0.33036 0.3377-0.50655 0.11257-0.22513 0.22513-0.45027 0.3377-0.6754 0-0.053626-0.022625-0.11226 0-0.16088 0.10501-0.22566 0.25017-0.43036 0.37526-0.64554z"/>
 </g>
</svg>
