<?xml version="1.0" encoding="UTF-8"?>
<svg version="1.1" viewBox="0 0 100 150" xmlns="http://www.w3.org/2000/svg">
 <g fill="none" stroke="#000" stroke-linecap="round" stroke-width="5">
  <path d="m30.314 134.93c-0.02519-2.9569-0.01434-5.9141-0.01434-8.8711v-2.2951c0-0.2278-0.02881-0.45743 0-0.68339 0.0718-0.56312 0.21479-1.1151 0.30088-1.6762 0.07157-0.46652 0.10972-0.93759 0.17192-1.4054 0.13837-1.0408 0.28492-2.0805 0.42978-3.1204 0.22319-1.6022 0.27511-1.6651 0.38687-3.6877 0.02032-0.36766 0.07406-3.6137 0.04297-4.1003-0.04529-0.70866-0.19844-1.407-0.25791-2.1146-0.02664-0.31693 0.01598-0.6365 0-0.95415-0.04611-0.91642-0.14848-1.8296-0.1862-2.7464-0.02438-0.59262 0-1.1863 0-1.7794v-3.2751-5.2479-2.5917c0-0.26218 0.02478-0.52553 0-0.78654-0.25801-2.7181-0.21717-0.83182-0.32956-2.8625-0.19387-3.5028-0.1289-7.0149-0.1289-10.522v-5.8797c0-0.47708-0.02608-0.95488 0-1.4312 0.05515-1.0075 0.18852-2.0097 0.24351-3.0172 0.02624-0.48066-0.01422-0.96297 0-1.4441 0.02009-0.6796 0.23036-5.2752 0.25791-6.2021 0.02797-0.94085 0-1.8825 0-2.8238v-5.0545c0-0.48568-0.02399-0.97195 0-1.457 0.06917-1.3987 0.22436-2.7922 0.30088-4.1906 0.08831-1.614 0.14268-3.2323 0.1862-4.8482 0.03015-1.1193 0.10637-2.2122-0.07159-3.3267-0.10071-0.63068-0.3333-1.2335-0.4728-1.8568-0.29654-1.3249-0.38849-2.7442-0.34384-4.1003 0.01232-0.37421-0.01456-0.75433 0.05731-1.1218 0.15364-0.78555 0.42044-1.5448 0.61604-2.3209 0.08141-0.32304 0.0582-0.66451 0.11462-0.99284 0.02558-0.14886 0.09636-0.28847 0.11462-0.4384 0.02026-0.16639-0.0088-0.33547 0-0.50286 0.01807-0.34549 0.11462-0.68557 0.11462-1.0315 0-0.18134-0.15503-0.63568-0.20055-0.76075-0.03687-0.1013-0.10557-0.19134-0.12896-0.29656-0.02842-0.12786-0.02101-1.4646 0-1.5602 0.05834-0.26549 0.1802-0.51314 0.25786-0.77364 0.15291-0.51293 0.28704-1.0231 0.30088-1.5602 0.02686-1.0426 0.02868-2.0876 0.02868-3.1333v-0.8768c0-0.01386-4.99e-4 -0.09022 0-0.09025 0.48087-0.03763 0.96469 0 1.447 0 0.32684 0 1.0081-0.0101 1.3037 0.03868 0.33496 0.05527 0.65747 0.16997 0.98857 0.24499 0.31928 0.07234 1.8724 0.38833 2.1777 0.42551 0.43718 0.05323 0.87888 0.05837 1.3181 0.09025 0.44903 0.03259 0.89724 0.07706 1.3467 0.10316 0.99184 0.05759 1.9951 0.01249 2.98 0.16762 0.98325 0.15486 1.9429 0.4575 2.8797 0.78654 0.17625 0.0619 0.33951 0.15732 0.51577 0.2192 1.2766 0.44815 1.4721 0.47496 2.6792 0.82522 1.9651 0.57024 3.8956 1.1927 5.8167 1.8954 1.0228 0.37413 2.0831 0.67608 3.0374 1.212 0.40143 0.22546 1.2746 0.75068 1.7049 1.1089 0.3879 0.32291 0.74892 0.67697 1.1319 1.0057 1.8436 1.5828 0.27943 0.09079 2.0918 1.9728 0.39259 0.40769 0.82976 0.77478 1.1891 1.212 0.35943 0.43735 0.77837 1.342 1.0888 1.831 0.7335 1.1552 1.7317 2.1654 2.2351 3.4556 1.1705 3.0001 0.34324 1.1159 1.0602 3.0688 0.42029 1.1449 0.65469 1.7766 1.1032 2.7722 0.52938 1.1752 0.73993 1.4927 1.2035 2.8625 0.36792 1.0872 0.49322 2.9217 0.60176 3.8166 0.06511 0.5369 0.11741 1.0753 0.18626 1.6118 0.08397 0.6542 0.20708 1.3036 0.2722 1.9599 0.18134 1.8279 0.04727 3.6324-0.25791 5.4413-0.08768 0.5197-0.38069 2.2576-0.61604 2.8883-0.24292 0.65101-1.0334 2.549-1.4614 3.5588-0.74848 1.7662-1.4517 3.5394-2.8081 4.9513-0.55894 0.58182-1.1509 1.131-1.7336 1.6891-0.23408 0.22422-0.45524 0.46555-0.71637 0.65759-0.57685 0.42422-1.1769 0.81786-1.7909 1.1863-0.2905 0.1743-0.60974 0.29553-0.91692 0.43839-0.69095 0.32134-1.3842 0.6378-2.0774 0.95416-1.3601 0.62065-1.3181 0.57466-3.066 1.3797-3.4014 1.5665 3.0344-1.2932-2.9657 1.3539-0.30505 0.13458-0.60122 0.29248-0.91692 0.39972-0.66016 0.22426-1.3403 0.38505-2.0058 0.59312-0.35201 0.11006-0.69262 0.25507-1.0459 0.36104-1.3765 0.41294-3.0006 0.84178-4.4127 1.1862-0.36142 0.08816-0.72864 0.15198-1.0888 0.245-1.5867 0.40977-3.1219 0.94181-4.7422 1.1991-0.59048 0.09378-1.3868 0.02578-1.9915 0.02578-0.12894 0-0.25948-0.02031-0.38681 0-2.6038 0.4153 0.56252 0.05861-1.2178 0.18052-1.5259 0.10449-0.29202 0.02488-1.2751 0.1934-0.68054 0.11666-1.3689 0.15207-2.0487 0.27078-0.42488 0.07419-0.57713 0.0845-0.97429 0.16762-0.0721 0.01509-0.28855 0.05158-0.21489 0.05158 0.86005 0-0.05338-0.04112 1.2035 0.24498 0.54488 0.12404 1.0933 0.23902 1.6476 0.30945 0.66523 0.08452 1.3367 0.11034 2.0058 0.15474 1.8541 0.12303 3.7167 0.07736 5.5732 0.07736 0.57308 0 1.1506-0.07118 1.7192 0 0.70962 0.08883 1.4003 0.29447 2.0918 0.47707 1.4378 0.37971 2.8162 0.91614 4.1978 1.457 2.3308 0.91252 4.5135 2.1276 6.5045 3.649 0.57793 0.44163 1.1273 0.97588 1.6476 1.4828 1.6e-5 1.7e-5 1.3723 1.3407 1.6476 1.6891 0.31055 0.39302 0.61525 0.7921 0.8883 1.212 0.10576 0.16266 0.17788 0.34609 0.24351 0.52867 0.14485 0.40295 0.27575 0.81142 0.38687 1.2249 0.28784 1.0712 0.32232 2.2046 0.4728 3.3009 0.17649 1.2858 0.4273 2.5736 0.53005 3.8682 0.04974 0.6267 0.07709 1.255 0.11462 1.8825 0.01978 0.33091 0.0382 0.66189 0.05731 0.99284 0.05731 0.6662 0.12708 1.3314 0.17192 1.9986 0.0626 0.93123 0.04302 1.9092 0.04302 2.8367 0 0.26218 0.01845 0.525 0 0.78653-0.1067 1.5125-0.171 1.4446-0.31522 2.7593-0.3787 3.4523-0.0029 0.61659-0.34385 2.9012-0.08969 0.60098-0.23005 1.8165-0.41549 2.5014-0.56512 2.0874-1.3786 4.116-2.5215 5.957-0.41282 0.665-1.1351 1.7021-1.6476 2.3854-0.29607 0.39475-0.61367 0.77333-0.90258 1.1734-0.4391 0.60798-0.80507 1.266-1.2321 1.8825-0.62562 0.90311-0.96386 1.2819-1.8052 2.1533-1.2427 1.287-3.3018 2.4687-4.9284 3.3009-0.41733 0.21349-0.85894 0.37736-1.2751 0.59313-2.2095 1.2559-0.52718 0.33593-2.3066 1.2378-2.0751 1.0517-1.1521 0.64613-2.5932 1.2765-0.03151 0.0138-1.9285 0.88432-2.4642 1.0186-1.4998 0.37597-2.9614 0.68064-4.4987 0.77366-0.66441 0.0402-1.3399 0-2.0058 0h-1.7622c-0.24833 0-0.5023 0.0526-0.745 0-0.28327-0.0614-0.53487-0.2235-0.8023-0.33525z"/>
  <path d="m7.8237 142.69v1.0573 0.0774-4.6419c0-0.82167 0.031563-2.189-0.071649-3.0559-0.10586-0.88916-0.27719-1.7694-0.40115-2.6562-0.062306-0.44574-0.090406-0.89596-0.15758-1.341-0.18806-1.2459-0.49447-2.4109-0.50148-3.6748-0.00661-1.1911 0.032284-2.3833 0.11462-3.5717 0.042012-0.60638 0.18674-1.2015 0.25791-1.8052 0.11991-1.017 0.21979-2.0363 0.31522-3.0559 0.052622-0.56221 0.085932-1.1261 0.1289-1.6891 0.085971-1.0229 0.16158-2.0468 0.25791-3.0688 0.26251-2.7848 0.70688-5.5508 0.90258-8.3425 0.15432-2.2013 0.08599-4.4234 0.08599-6.6276v-1.9083c0-0.48138 0.036872-0.96418 0-1.4441-0.035-0.4556-0.16965-0.89918-0.21495-1.3539-0.078998-0.79294-0.090149-1.5914-0.15758-2.3854-0.27112-3.1924-0.19364-0.0658-0.22923-4.2422-0.016651-1.9538-0.06648-4.0302 0.057308-5.9828 0.045095-0.71138 0.15432-1.4173 0.21489-2.1275 0.088297-1.0354 0.35524-3.7631 0.31522-5.235-0.020011-0.73594-0.010302-1.4783-0.12896-2.2049-0.12613-0.77236-0.4177-1.5087-0.6017-2.2694-0.097882-0.40464-0.17342-0.81459-0.24357-1.2249-0.033036-0.19325-0.50295-3.1861-0.57308-3.7651-0.18194-1.5022-0.20824-3.0272-0.17192-4.5387 0.047548-1.9792 0.083787-2.1158 0.51577-4.5387 0.087588-0.49127 0.24881-0.96714 0.34385-1.457 0.37574-1.9368 0.39821-2.2399 0.6017-3.8424 0.12996-1.0234 0.30514-2.0416 0.40121-3.0688 0.083486-0.89259 0.14006-1.7875 0.20055-2.682 0.087781-1.2981 0.19799-3.3394 0.11462-4.5258-0.036306-0.51666-0.26388-1.0061-0.31516-1.5215-0.12104-1.2165-0.13656-2.4411-0.20061-3.6619-0.04103-0.7821-0.032314-1.5679-0.11462-2.3467-0.075574-0.71517-0.23464-1.4191-0.35819-2.1275-0.043604-0.25004-0.12271-0.49487-0.14324-0.74785-0.13507-1.6643 0.01757-2.4263 0.25785-4.255 0.10768-0.8195 0.28761-1.0705 0.20061-1.831-0.076564-0.66928-0.23949-0.94612-0.25791-1.5473-0.019093-0.62292 0.059656-1.2493 0-1.8696-0.026651-0.27714-0.052473-0.55752-0.12896-0.82522-0.12294-0.4303-0.44243-0.61339-0.37247-1.1089 0.084297-0.59706 0.29236-1.17 0.44412-1.7536 0.05838-0.2245 0.1646-0.43954 0.18626-0.67049 0.040944-0.43648 0.014642-0.87704 0-1.3152-0.02553-0.76397-0.49559-1.4311-0.63038-2.1791-0.12793-0.7099-0.13524-1.4364-0.21489-2.1533-0.054607-0.49149-0.12494-0.98123-0.20061-1.4699-0.034825-0.22491-0.07643-0.44904-0.12896-0.67049-0.071926-0.30324-0.25777-0.68384-0.20055-0.99284 0.00348-0.018783 0.038205 0 0.057308 0 0.17192 0 0.34561 0.024578 0.51577 0 0.78753-0.11375 1.4247-0.58767 2.1777-0.79943 0.90871-0.25557 1.3245-0.17819 2.2637-0.19341 0.81149-0.013156 1.6276-0.080526 2.4356-0.15472 0.90896-0.08347 1.8339-0.12249 2.7365-0.25788 0.88954-0.13343 1.6997-0.31287 2.5788-0.4384 0.67726-0.096703 1.3565-0.17901 2.0344-0.27078 0.92286-0.12492 1.8422-0.27513 2.7651-0.39972 0.81574-0.11012 1.6301-0.23567 2.4499-0.30946 1.2102-0.10891 2.463-0.12113 3.682-0.14183 2.6598-0.045166 1.6623-0.038681 3.5961-0.038681h2.2493c0.48712 0 0.97478-0.022876 1.4614 0 0.79417 0.037336 1.5847 0.13196 2.3783 0.18051 2.3462 0.14356 4.6898 0.23739 7.0345 0.41261 2.8472 0.21276-0.24763 0.00433 2.4642 0.27078 0.69613 0.068396 1.3952 0.10326 2.0918 0.16762 1.0044 0.092811 2.0067 0.20629 3.0087 0.32235 1.6324 0.1891 0.5917 0.1626 2.7651 0.36104 0.84552 0.077198 1.4794 0.03796 2.321 0.064471 0.58292 0.018362 1.1653 0.050552 1.7479 0.077362 1.3824 0.063618 0.44494 0.043615 2.5072 0.064471 0.2722 0.00275 0.5467 0.035108 0.81665 0 0.83817-0.10901 1.6571-0.33783 2.4928-0.46419 1.0897-0.16477 2.1797-0.2192 3.2809-0.2192 0.42026 0 0.84429-0.056224 1.2608 0 0.26185 0.035349 0.4901 0.20116 0.745 0.27078 0.43893 0.11987 0.88564 0.2104 1.3324 0.29656 0.22236 0.042884 0.44903 0.059201 0.67335 0.090261 0.21026 0.029114 0.41849 0.077548 0.63038 0.090261 1.1876 0.07125 1.2898-0.03195 2.4213 0.090254 0.85358 0.092188 1.6955 0.27982 2.5502 0.36104 1.2849 0.1221 1.2749 0.10315 2.3353 0.10315 0.22447 0 0.44996 0.021394 0.67341 0 0.4489-0.064471 0.8978-0.12894 1.3467-0.19341 0.21013-0.064469 0.41351-0.15767 0.63038-0.19341 0.94771-0.15617 1.8333-0.13492 2.7794-0.14184 0.34864-0.00255 0.69734-0.0041 1.0459-0.012891 0.35706-0.00901 0.71808-0.064471 1.0746-0.064471 0.31408 0 0.9231-0.536 0.97423-0.48997 0.01278 0.011502 0 0.034382 0 0.051572v0.32235 2.0373c0 1.7355 0.0723 1.5841-0.37253 3.649-0.18904 0.87751-0.57797 1.7661-0.78796 2.6433-0.3608 1.5071-0.58078 2.9973-0.8023 4.5258-0.03871 0.26713-0.10154 0.53091-0.12896 0.79943-0.13382 1.3106-0.11462 1.328-0.11462 2.3854 0 0.49427-0.04822 0.9909 0 1.4828 0.0241 0.24583 0.14326 0.47278 0.21489 0.70917 0.05731 0.45989 0.13048 0.91808 0.17192 1.3797 0.03502 0.39002 0.0319 0.7826 0.05731 1.1734 0.05619 0.86404 0.12055 1.7718 0.25791 2.6304 0.0897 0.56069 0.40839 1.7611 0.48708 2.1404 0.11446 0.55169 0.19307 1.1103 0.30088 1.6633 0.131 0.672 0.29574 1.3374 0.41549 2.0115 0.31579 1.7776 0.49818 3.5819 0.78796 5.3639 0.25088 1.5428 0.43036 2.238 0.745 3.9069 0.23145 1.2277 0.37468 2.3818 0.48714 3.649 0.09038 1.0184 0.09321 3.1449 0.10027 3.9972 0.0028 0.34383 0.04096 0.69013 0 1.0315-0.15406 1.2841-0.35329 1.5681-0.51577 2.682-0.11507 0.78882-0.19967 1.5818-0.30088 2.3725-0.3324 2.597-0.33484 2.2613-0.48708 4.2293-0.07047 0.91091-0.14357 1.8217-0.20061 2.7335-0.09048 1.4465-0.05281 2.8986-0.14324 4.3453-0.10634 1.7013-0.26098 3.4025-0.3295 5.1061-0.06316 1.5703-0.02868 3.1477-0.02868 4.7192v3.6232 2.3854c0 0.38682-0.02858 0.7747 0 1.1605 0.23125 3.1219 0.21814 0.77008 0.3295 3.3009 0.06551 1.4886 0.01434 2.9845 0.01434 4.4742 0 0.75645-0.04467 1.5142 0 2.2694 0.02243 0.3792 0.15406 0.74478 0.20061 1.1218 0.08728 0.70695 0.12574 1.4191 0.20055 2.1275 0.15703 1.487 0.42363 2.964 0.60176 4.4485 0.30978 2.5816 0.34336 5.1959 0.51577 7.788 0.09459 1.422 0.31996 2.8396 0.55873 4.2422 0.06972 0.40951 0.18224 0.8122 0.22923 1.2249 0.17851 1.568 0.1433 3.1452 0.1433 4.7192v2.1791c0 0.47708 0.04491 0.95628 0 1.4312-0.08674 0.91728-0.70684 2.1745-0.95994 2.9141-0.3284 0.95952-0.62218 2.5739-0.77362 3.4169-0.3488 1.9415-0.31376 1.5402-0.32956 3.0172-0.0026 0.2449-0.05048 0.86048 0 1.0573 0.52496 2.0469 0.01575-0.2013 0.31522 0.87679 0.19569 0.70449 0.28338 1.4086 0.41549 2.1275 0.04511 0.24549 0.1046 0.48837 0.14324 0.73496 0.06675 0.42604 0.05628 0.8614 0.12896 1.2894 0.05209 0.30674 0.1798 0.64707 0.2722 0.94128 0.03005 0.0957 0.06897 0.1884 0.10033 0.28366 0.0069 0.0209 0.01159 0.0863 0.01428 0.0645 0.0422-0.34288-0.0537-0.18052-0.48708-0.18052-0.22447 0-0.44952 0.0161-0.67341 0-0.59986-0.0432-1.1923-0.16127-1.7909-0.2192-0.54392-0.0526-1.088-0.10537-1.6332-0.14183-0.2908-0.0194-0.58252-0.0231-0.87395-0.0258-0.6447-6e-3 -1.2897-0.0185-1.9342 0-0.40688 0.0117-0.81152 0.0653-1.2178 0.0903-2.2119 0.13573-4.4319 0.30415-6.6477 0.34814-1.7536 0.0348-3.5886 0.0647-5.3439-0.0387-0.37433-0.022-0.74289-0.11289-1.1175-0.12894-0.6298-0.027-1.2608 0-1.8911 0-0.69249 0-1.3859-0.0365-2.0775 0-0.37141 0.0196-0.73661 0.10438-1.1031 0.16762-7.6013 1.3116 0.27031 0.0242-3.9686 0.65759-0.08333 0.0125-2.9407 0.45752-3.6104 0.58024-0.66977 0.12273-1.3348 0.27093-2.0058 0.38682-0.81638 0.14101-1.4568 0.13273-2.321 0.16762-1.1175 0.0451-2.2394 0.0643-3.3525 0.18053-1.6166 0.1688-3.2237 0.37564-4.8425 0.52865-2.0652 0.1952-4.1302 0.29677-6.2036 0.34814-0.60238 0.0149-2.0092-0.018-2.4356-0.0516-0.24186-0.019-0.47529-0.10128-0.71631-0.12894-0.47129-0.0541-0.94615-0.0712-1.4184-0.11604-0.95351-0.0907-0.53155-0.12942-1.8195-0.19342-1.5499-0.077-3.0963 0.0869-4.642-0.0903-2.9693-0.34043 0.57909 0.0227-2.9227-0.39971-1.6232-0.19579-3.2737-0.18142-4.8855-0.47709-0.57717-0.10587-1.1393-0.28221-1.7049-0.43839-0.58884-0.16259-1.1586-0.4045-1.7336-0.60603-0.67938-0.23814-1.3854-0.42748-2.0917-0.56733-0.63124-0.12499-1.3072-0.25523-1.9485-0.32235-0.16171-0.0169-0.32532-9e-3 -0.48708-0.0258-0.30828-0.0312-0.88248-0.12368-1.2035-0.1805-0.50403-0.0892-0.1823-0.0321-0.48714-0.14184-0.20448-0.0736-0.64966-0.14983-0.78796-0.18053-0.16296-0.0362-0.32223-0.0902-0.48714-0.11604-0.69697-0.10908-0.68145-0.0703-1.2321-0.11604-0.17693-0.0147-0.35319-0.0368-0.53011-0.0516-0.038072-3e-3 -0.079255-0.0145-0.11462 0-0.25856 0.10577-0.51575 0.2149-0.77362 0.32235z" stroke-linejoin="round"/>
 </g>
</svg>
