<?xml version="1.0" encoding="UTF-8"?>
<svg version="1.1" viewBox="0 0 100 100" xmlns="http://www.w3.org/2000/svg">
 <g fill="none" stroke="#000" stroke-width="1px">
  <path d="m69.045 4.7053c-0.39257-0.056284-0.78214-0.14054-1.1777-0.16885-0.39298-0.02812-0.78797 0-1.182 0h-1.6885-4.6795-2.2002c-0.39398 0-0.79346-0.065548-1.182 0-0.30348 0.051203-0.56371 0.25017-0.85683 0.34399-1.0672 0.34158-2.139 0.67103-3.2213 0.96127-7.5807 2.0329 3.1077-1.1404-5.7206 1.5835-1.5477 0.47754-3.1092 0.90918-4.6657 1.3572-0.42262 0.12164-0.86195 0.19406-1.2694 0.35957-0.61315 0.24907-1.2027 0.5559-1.7801 0.87921-0.79269 0.44382-2.2518 1.6207-2.7829 2.0958-0.5243 0.46899-0.95686 1.0359-1.4922 1.4922-0.80305 0.68441-1.7064 1.2444-2.5146 1.9227-0.42135 0.35361-0.74904 0.80912-1.1669 1.1669-1.8948 1.3534-0.5412 0.28875-1.8574 1.5197-3.072 2.873-0.94166 0.77098-2.8946 2.7239-1.0955 1.0955-3.3178 3.1686-4.4663 4.6683-0.66879 0.87334-1.2794 1.7898-1.9081 2.6924-0.2518 0.36153-0.51892 0.71477-0.73316 1.0998-0.6189 1.1122-1.3621 2.7146-1.8311 3.933-0.32711 0.84973-0.58571 1.725-0.91978 2.572-1.0973 2.7821-0.97541 1.4032-1.6423 5.0913-0.1332 0.73666-0.09698 1.4947-0.18159 2.2385-0.09456 0.8313-0.28554 1.6509-0.35568 2.4847-0.04872 0.57911 0 1.1623 0 1.7435v6.2592 3.7283c0 1.5336-0.05339 2.8022 0.18884 4.3411 0.20026 1.2723 1.0329 2.6245 1.4962 3.7238 1.4553 3.4527-1.6092-2.6515 1.5767 2.98 0.14924 0.26381 0.20215 0.57316 0.3377 0.84425 0.732 1.464 1.7307 2.9045 2.5711 4.2743 0.36398 0.59321 0.6813 1.2152 1.0651 1.7958 0.20707 0.3132 0.47738 0.57994 0.70364 0.87956 0.49035 0.64934 0.93122 1.3365 1.4458 1.9668 0.25994 0.31837 0.60862 0.55625 0.87187 0.87188 0.3123 0.37443 0.54993 0.80603 0.84887 1.1912 0.0976 0.12576 0.23287 0.2179 0.3377 0.3377 0.28947 0.33082 0.53342 0.70227 0.84425 1.0131 0.17492 0.17492 0.99615 0.62203 1.182 0.6754 0.16025 0.04603 0.33849-0.04062 0.5002 0 0.38627 0.09702 0.81185 0.3215 1.182 0.50655 0.78797 0.39398 1.5869 0.76679 2.3639 1.182l1.609 0.90603c0.22514 0.05628 0.46334 0.0746 0.6754 0.16885 0.2999 0.13329 0.55737 0.34717 0.84425 0.50655 0.22003 0.12224 0.45027 0.22513 0.6754 0.3377 0.3377 0.16885 0.66617 0.3576 1.0131 0.50655 0.05107 0.02193 0.1125-0.01211 0.16675 0 0.45166 0.10079 0.89966 0.2177 1.3466 0.3377 0.41102 0.11036 0.81395 0.25034 1.2269 0.35327 0.75117 0.18725 1.5228 0.29399 2.2642 0.51696 0.44568 0.13404 0.83933 0.41046 1.2833 0.54999 0.92353 0.29023 1.8745 0.48464 2.8093 0.73617 0.98359 0.26465 1.944 0.61324 2.9325 0.85907 0.34493 0.08578 0.70097 0.11826 1.0516 0.17668 3.0403 0.50664 6.0918 0.98863 9.1692 1.2106 0.59552 0.04296 1.1941 0 1.7912 0h3.8509 1.8492c0.86429 0 1.7335 0.09173 2.5929 0 0.76627-0.08179 1.5017-0.34697 2.2533-0.51728 1.5624-0.35405 1.513-0.19923 2.9004-1.0323 0.9028-0.54212 1.2601-0.94644 2.063-1.5518 1.6682-1.2579 2.2195-1.4372 3.545-3.0149 1.3179-1.5685 1.1041-1.5977 1.8968-3.2711 0.26938-0.5687 0.57487-1.1198 0.84425-1.6885 1.7358-3.6644-0.04294 0.01627 1.0131-2.3639 2.5469-5.7404-0.4847 1.3904 2.2046-5.162 0.61268-1.4928 1.3607-2.9284 1.955-4.4286 0.30711-0.7752 0.5348-1.5797 0.78786-2.3742 0.53397-1.6764 1.4651-4.7756 1.9378-6.422 0.23158-0.80666 0.54427-1.5975 0.66728-2.4277 0.16409-1.1074 0.0674-2.2403 0.1893-3.3531 0.09078-0.82876 0.38658-1.6293 0.44752-2.4608 0.08882-1.2118 0-2.4301 0-3.6451v-3.1015-4.5504c0-1.3185 0.0917-2.6402 0-3.9556-0.07881-1.1305-0.57692-2.2921-0.96582-3.3379-0.1913-0.51437-0.4368-1.0112-0.57845-1.5414-0.11204-0.41938-0.0597-0.87238-0.178-1.29-0.06855-0.24203-1.065-3.1515-1.4701-3.8645-0.5671-0.99802-1.2009-1.9571-1.831-2.9166-0.55258-0.8415-1.1445-1.6565-1.7162-2.4852-0.56086-0.81293-1.0967-1.6437-1.6815-2.4395-0.28097-0.38235-0.61952-0.71924-0.91347-1.0917-0.35208-0.44612-0.68274-0.90873-1.0239-1.3632-0.17053-0.22714-0.3212-0.47059-0.51125-0.68166-1.1751-1.3051-1.0658-0.97602-2.565-2.2273-0.18333-0.15301-0.3377-0.3377-0.50655-0.50655-0.67277-0.67277-0.76794-0.71822-1.3508-1.5197-0.23872-0.32824-0.43188-0.68841-0.6754-1.0131-0.095516-0.12736-0.22513-0.22513-0.3377-0.3377-0.16885-0.16885-0.3377-0.3377-0.50655-0.50655-0.5565-0.5565-0.6293-0.6666-1.3508-1.182-0.39059-0.27899-0.91475-0.31936-1.3466-0.50444-0.23136-0.099152-0.4442-0.2382-0.6754-0.3377-0.15645-0.067331-0.33229-0.085655-0.48474-0.16159-0.067139-0.03344-0.093676-0.12246-0.15912-0.1591-0.13345-0.074716-0.29157-0.097077-0.42662-0.16885-0.2898-0.15402-0.55274-0.35579-0.84425-0.50655-0.04003-0.020704-0.09169 0.011718-0.13521 0-0.16739-0.045071-0.32766-0.11331-0.49188-0.16885-0.1686-0.057026-0.34721-0.089548-0.50655-0.16885-0.06994-0.034809-0.19027-0.091568-0.16572-0.16573 0.069374-0.20956 0.26416-0.35375 0.39624-0.53062z"/>
  <path d="m60.807 28.126c-0.16033-0.03207-0.86881-0.23116-1.182-0.16885-0.17239 0.0343-0.3335 0.11116-0.50024 0.16674-0.46597 0.15532-0.60692 0.15358-0.9974 0.4982-0.39117 0.34523-0.69258 0.79365-1.1187 1.0947-1.3588 0.95984-2.8167 1.7711-4.2148 2.6728-2.8902 1.8642-2.0459 1.3281-5.2287 4.3581-1.3595 1.2943-1.4001 1.4439-2.7738 3.3135-0.6679 0.90908-1.2236 1.8694-1.5679 2.9604-0.08469 0.26837 0.01573 0.56328 0 0.84425-0.20411 3.6469-0.17244 0.93833-0.17244 3.4729v2.3063c0 0.3377-0.05267 0.67954 0 1.0131 0.11712 0.74173 0.34366 1.462 0.50655 2.1951 0.06226 0.28016 0.06381 0.57718 0.16885 0.84425 0.31203 0.79338 0.71286 1.5489 1.0758 2.3204 0.57124 1.2143 1.1569 2.356 1.8466 3.5278 0.14884 0.2529 0.35179 0.46979 0.52696 0.70523 0.34774 0.46737 0.67038 0.95437 1.0418 1.4032 0.69968 0.8456 0.93704 0.85757 2.0423 1.3669 0.28329 0.13056 0.59404 0.19998 0.86886 0.34753 0.46781 0.25118 0.8823 0.59438 1.3508 0.84425 1.388 0.74025 0.75769 0.30308 1.6885 0.6754 0.39798 0.15919 0.79026 0.33246 1.182 0.50655 0.11501 0.05111 0.22202 0.11928 0.3377 0.16885 0.27859 0.1194 0.56284 0.22513 0.84425 0.3377 0.50655 0.22513 1.0119 0.45305 1.5197 0.6754 0.39434 0.17268 0.78217 0.36232 1.1867 0.50969 0.21959 0.08 0.4554 0.10616 0.6801 0.17041 0.17113 0.04892 0.33125 0.13805 0.50655 0.16885 0.1492 0.02622 0.31622-0.06197 0.45445 0 0.25679 0.11513 0.4312 0.36669 0.6754 0.50655 0.15251 0.08735 0.33061 0.12062 0.5002 0.16674 0.03636 0.0099 0.08036-0.01876 0.11303 0 0.06228 0.03575 0.10155 0.10157 0.15232 0.15235"/>
 </g>
</svg>
