<?xml version="1.0" encoding="UTF-8"?>
<svg version="1.1" viewBox="0 0 100 150" xmlns="http://www.w3.org/2000/svg">
 <g fill="none" stroke="#000" stroke-linecap="round" stroke-linejoin="round" stroke-width="5">
  <path d="m72.552 33.899c-1.2719-0.31946-1.8533-0.39511-2.9656-0.8768-0.39323-0.17028-0.70313-0.49672-1.0888-0.68339-0.86017-0.41628-2.3036-0.71525-3.2236-0.83812-0.67529-0.09018-2.4319-0.05157-2.7937-0.05157-0.29132 0-0.58393-0.02748-0.87395 0-0.8006 0.07584-1.5995 0.17665-2.3926 0.30946-0.44052 0.07376-0.86915 0.2063-1.3037 0.30946-0.86917 0.20631-1.74 0.40598-2.6075 0.61892-0.84809 0.20816-1.6995 0.40666-2.5359 0.65759-0.65274 0.19582-2.3815 1.0628-2.6505 1.1863-0.46104 0.2117-1.5177 0.6355-1.9485 0.90259-2.511 1.557-4.5747 3.5569-6.6477 5.6476-0.85788 0.8652-1.7281 1.7187-2.5646 2.6046-1.8781 1.9892-2.1915 2.5686-4.0259 5.0416-1.6389 2.2096-3.3152 4.4989-4.2121 7.1304-0.57824 1.6965-0.91718 3.0077-1.0888 4.6934-0.11098 1.0898-0.15155 2.1863-0.27225 3.2751-0.26974 2.4331-0.97812 4.7697-1.361 7.182-0.5954 3.7508-1.1927 7.5146-1.4327 11.308-0.15155 2.3955-0.10296 4.7246 0.1862 7.1175 0.06163 0.51001 0.20051 1.0078 0.31522 1.5086 0.5636 2.4604 0.59354 2.7462 1.4614 5.0416 0.17397 0.46015 0.37936 0.90809 0.58736 1.3539 0.63519 1.3614 0.96158 2.0912 1.662 3.2364 0.43146 0.70546 0.88119 1.3996 1.3181 2.1017 0.73682 1.1841 1.4165 2.4934 2.364 3.533 0.57302 0.6287 1.202 1.2042 1.7909 1.8181 0.28528 0.29743 0.51903 0.64616 0.83099 0.91548 1.9711 1.7018 3.4077 2.5064 5.6305 3.7522 0.32776 0.18369 0.64334 0.39326 0.98857 0.54155 1.6908 0.72624 3.4244 1.2461 5.258 1.457 0.7743 0.0891 1.5564 0.089 2.3353 0.11604 0.3341 0.0116 0.67453 0.0626 1.0029 0 0.7164-0.13667 1.4209-0.343 2.106-0.59313 0.33333-0.12169 0.62005-0.34528 0.93126-0.51576 1.9849-1.0873 1.7792-1.0277 3.2093-1.6891 2.2584-1.0445 4.6334-1.8484 6.8197-3.043 0.32423-0.17716 0.6531-0.34594 0.97423-0.52865 0.49604-0.28223 0.96334-0.62988 1.4327-0.95416 0.79113-0.5466 1.579-1.0955 2.3639-1.6504 0.0703-0.0497 0.01434 0.17179 0.01434 0.25789"/>
  <path d="m53.87 13.101c-0.70679-0.15043-1.4035-0.36061-2.1204-0.45129-0.45188-0.05716-0.87554 0.3343-1.2751 0.47708-0.63014 0.22518-1.2697 0.42319-1.9055 0.63181-5.0069 1.6429 2.5022-0.79503-3.3525 0.96705-0.86247 0.25958-1.7076 0.57384-2.5646 0.85101-1.9477 0.62996-3.9666 0.95708-5.8024 1.9083-0.36484 0.18905-0.68511 0.45435-1.0173 0.69628-0.79513 0.57915-1.6206 1.1223-2.3639 1.7665-0.55063 0.47721-1.0266 1.0358-1.5043 1.586-0.65012 0.74874-1.268 1.5253-1.8768 2.308-3.5916 4.6177 2.7631-3.0952-3.5531 4.8353-1.5431 1.9375-2.5653 3.0902-4.1548 4.6934-0.82 0.8271-1.7022 1.5945-2.4786 2.4628-0.96577 1.0801-2.4261 4.1469-2.8081 4.8611-1.1248 2.1029-1.5373 2.8767-2.5502 4.7192-1.0097 1.8367-2.0693 3.6467-3.0373 5.5058-0.68217 1.3101-1.3434 2.6312-1.9915 3.9585-0.42357 0.86743-1.0739 2.2911-1.361 3.2622-0.66045 2.2336-0.75568 4.5762-0.8883 6.8854-0.074546 1.2981-0.14676 2.5964-0.22923 3.894-0.17508 2.7547-0.32777 3.5481-0.24357 6.5889 0.078754 2.844 0.36164 4.6231 0.77368 7.4141 0.0954 0.64621 0.22929 1.2866 0.31522 1.9341 0.15768 1.1882 0.28692 2.38 0.41544 3.5717 0.40056 3.7141 0.63852 7.4718 1.5903 11.102 0.22906 0.87359 0.56098 1.717 0.83093 2.5788 0.54307 1.7338 0.84434 2.87 1.3181 4.745 0.12096 0.4787 0.21141 0.96471 0.3295 1.4441 0.40086 1.6273 0.85345 3.2421 1.3324 4.8482 0.72396 2.4276 1.1773 3.9759 2.5646 6.0473 0.22415 0.3347 0.50119 0.63166 0.77362 0.92838 0.03788 0.0413 1.8767 1.9683 2.2924 2.308 0.18249 0.14917 3.012 2.295 3.5531 2.6948 1.5915 1.1761 3.0612 2.2072 4.7566 3.2106 0.31435 0.18605 0.62954 0.37278 0.95989 0.52867 2.3532 1.1105 4.8663 1.7261 7.3355 2.5143 0.31002 0.099 0.6074 0.23474 0.91692 0.33525 1.7627 0.57241 3.5873 1.0581 5.4012 1.4312 0.90103 0.18535 1.8621 0.14026 2.7651 0.2192 0.25576 0.0224 0.50526 0.0921 0.75934 0.12894 0.6343 0.0921 1.2682 0.18974 1.9055 0.25789 0.3281 0.0351 0.65915 0.0325 0.98857 0.0516 1.4514 0.084 2.9027 0.14003 4.3554 0.1934 1.1278 0.0414 3.4977 0.19303 4.513 0.0774 0.44131-0.0503 0.85233-0.25066 1.2751-0.38683 5.4904-1.7685 1.3759-0.25429 3.4098-1.2765 1.1435-0.57469 2.5275-0.83335 3.6964-1.341 0.5486-0.23825 1.0885-0.49739 1.619-0.77364 0.56654-0.29502 0.97285-0.66148 1.49-1.0444 0.47496-0.3517 0.94128-0.71618 1.4327-1.0444 0.26904-0.1797 0.56397-0.31725 0.84527-0.47707 0.57353-0.32585 1.1557-0.63712 1.7192-0.97996 0.29198-0.17763 0.54682-0.4138 0.84533-0.58023 0.68235-0.38045 1.3979-0.69809 2.0917-1.0573 0.7767-0.40218 1.5332-0.84241 2.3067-1.2507 1.899-1.0024 3.7199-1.8573 5.0717-3.6361 0.93342-1.2282 1.9302-2.6397 2.5502-4.0874 1.2007-2.8037 1.0545-2.7957 2.106-5.8023 0.6958-1.9895 1.6027-3.9013 2.2924-5.8926 0.40299-1.1636 0.76236-2.3419 1.1605-3.5072 0.18932-0.55412 0.37442-1.1108 0.6017-1.6505 0.35127-0.83407 1.541-3.245 1.9485-4.5129 0.74841-2.3288 1.1973-4.2012 1.404-6.6276 0.12299-1.4438-0.12165-2.0136-0.20055-3.6232-0.03388-0.69115 0-1.384 0-2.0759 0-1.139 0.01693-2.2781 0-3.4169-0.0077-0.51606 0.0017-1.0346-0.05731-1.5473-0.28292-2.4587-0.30057-2.0764-0.63038-3.649-0.32518-1.5505-0.62402-3.1065-0.95994-4.6548-0.15594-0.71872-0.65358-2.905-0.71631-3.2235-0.27001-1.3709-0.41616-2.8112-0.57308-4.1906-0.26887-2.3635 0.02618-0.32792-0.44418-3.8553-0.0707-0.53016-0.19789-1.0531-0.24357-1.586-0.07864-0.91742-0.09988-1.839-0.1289-2.7593-0.07123-2.2588 0.12419-4.5162-0.1433-6.7694-0.0419-0.35295-0.13526-0.69802-0.21489-1.0444-0.14963-0.65088-0.29029-1.3046-0.4728-1.947-0.19504-0.68657-0.44857-1.3553-0.65906-2.0373-0.19548-0.63333-0.37495-1.2715-0.55873-1.9083-0.46624-1.6155-0.4223-1.637-1.1175-3.778-0.22645-0.69737-0.95187-2.2615-1.1604-2.7206-0.31123-0.6852-0.63395-1.3651-0.9456-2.0502-0.46408-1.02-0.84366-1.9775-1.4041-2.9656-0.1504-0.26519-0.35902-0.49291-0.54439-0.73496-2.3422-3.0582-0.23942-0.39499-1.9629-2.3338-0.42694-0.48031-0.8044-1.0032-1.2321-1.4828-0.47632-0.53419-0.9634-1.059-1.4614-1.5731-0.79554-0.82126-1.7519-1.4762-2.6075-2.2307-0.6236-0.54993-0.58463-0.65642-1.4041-1.1734-0.15151-0.09559-0.33609-0.12445-0.50143-0.19341-0.22636-0.09441-0.46137-0.17322-0.67335-0.29656-0.50247-0.29239-1.3381-0.9372-1.8339-1.2765-0.76748-0.52523-1.5812-0.86831-2.4213-1.2636-1.2937-0.60878-2.5594-1.2995-3.8826-1.8439-1.0658-0.43848-2.1461-0.76068-3.2665-1.0186-0.23446-0.05398-0.46365-0.13512-0.70203-0.16762-0.45788-0.06244-1.0114-0.0129-1.4757-0.0129h-2.9657-1.8482c-0.01063 0-1.1214-0.03444-1.2321 0-0.30519 0.09495-0.5922 0.24069-0.8883 0.36104z"/>
 </g>
</svg>
