<?xml version="1.0" encoding="UTF-8"?>
<svg version="1.1" viewBox="0 0 100 150" xmlns="http://www.w3.org/2000/svg">
 <g fill="none" stroke="#000" stroke-linecap="round" stroke-linejoin="round" stroke-width="5">
  <path d="m31.191 126.39v-7.1175c0-0.67478 0.01836-1.3498 0-2.0244-0.02599-0.95476-0.16257-1.5656-0.24357-2.5401-0.16485-1.9834-0.11462-2.1729-0.11462-4.3324 0-0.56734-0.02988-1.1355 0-1.702 0.03707-0.70279 0.1316-1.4014 0.20061-2.1017 0.10292-1.0446 0.21731-2.0881 0.31516-3.1333 0.11391-1.2166 0.24419-3.4462 0.28654-4.4098 0.02359-0.53682 0.01571-1.0746 0.02868-1.6118 0.05345-2.2132 0.08829-4.4274 0.14324-6.6405 0.04099-1.6508 0.11659-3.3005 0.15758-4.9513 0.05496-2.2134 0.12394-4.427 0.17198-6.6404 0.01035-0.47699 6.96e-4 -0.95433 0.01428-1.4312 0.1009-3.5416 0.06704-1.4671 0.17192-4.023 0.03491-0.85069 0.13548-3.839 0.2006-5.1318 0.05306-1.0532 0.12589-2.1055 0.17192-3.159 0.03988-0.91288 0.02862-2.2299 0.02862-3.1204 0-0.82952 0.03836-1.6599 0-2.4886-0.01907-0.41187-0.12921-0.81484-0.17192-1.2249-0.28516-2.7376-0.50151-5.4995-0.77362-8.2393-0.07089-0.71381-0.22008-1.8445-0.31522-2.5917-0.05746-0.45127-0.1431-0.89987-0.17192-1.3539-0.09194-1.4482-0.04412-2.9415 0.10027-4.384 0.03931-0.39267 0.11897-0.78063 0.15764-1.1734 0.06167-0.6263 0.09387-1.2551 0.14324-1.8825 0.0318-0.40414 0.08499-0.80694 0.10027-1.212 0.03461-0.91703 0.02868-2.5505 0.02868-3.5717v-1.9212c0-0.28797 0.02078-0.57668 0-0.8639-0.06859-0.9479-0.17174-1.8933-0.28654-2.8367-0.19529-1.6048-0.50143-3.1997-0.50143-4.8224 0-0.37314-0.0081-0.99317 0.04297-1.3152 0.02371-0.14938 0.12568-0.27766 0.15758-0.42551 0.0641-0.29708 0.07653-0.60322 0.12896-0.90259 0.08611-0.49171 0.20272-0.97781 0.28654-1.4699 0.01-0.05864-0.02283-0.4398 0.01434-0.48998 0.01137-0.01535 0.03859-0.0038 0.05731 0 0.38283 0.07793 0.75979 0.18703 1.1462 0.24498 0.16056 0.02408 0.32472 0 0.48708 0 0.21969 0.02149 0.44182 0.02537 0.65906 0.06447 0.91074 0.16393 1.8612 0.45673 2.7508 0.69628 1.475 0.39718 2.8111 1.114 4.2552 1.5989 0.67514 0.22668 1.3638 0.41094 2.0488 0.60602 1.42 0.40443 2.871 0.67315 4.2981 1.0444 2.4293 0.63201 4.7742 1.5366 7.0632 2.553 1.1112 0.49341 2.2522 0.92313 3.3382 1.4699 0.40466 0.20376 0.7465 0.51363 1.1175 0.77364 0.79426 0.55662 1.6401 1.0471 2.3783 1.6762 1.9048 1.6235 2.4478 2.4701 3.768 4.4871 1.0761 1.644 1.7962 2.8124 2.5359 4.6419 0.39018 0.96512 0.67834 1.9684 1.0172 2.9527 0.6271 1.8217 1.2649 3.6622 1.576 5.5702 0.16395 1.0056 0.29437 2.0169 0.40115 3.0301 0.15138 1.4364 0.1499 4.8309 0.15758 5.6863 0.01444 1.6087-0.0084 5.012-0.07159 6.3181-0.03281 0.67779-0.15887 1.3481-0.21495 2.0244-0.36295 4.3768-0.12036 1.7527-0.2722 4.9126-0.14731 3.0659-0.36185 6.123-0.75934 9.1677-0.2083 1.5955-0.34506 2.9514-0.70203 4.4742-0.4265 1.8195-0.85372 3.2865-1.2608 5.0545-0.26507 1.1513-0.43248 2.3289-0.78796 3.4556-0.19791 0.62728-0.95066 2.727-1.2465 3.5201-0.42125 1.1293-0.8258 2.2657-1.2894 3.3783-0.54705 1.3129-1.2005 2.5968-1.8769 3.8424-0.69164 1.2738-0.86436 1.4226-1.6476 2.5401-6.2012 8.848 2.4447-3.3905-2.9227 4.023-0.2502 0.34558-0.44461 0.72998-0.70203 1.0702-0.42642 0.56359-0.90543 1.0855-1.3467 1.6376-1.2612 1.5778-2.4168 3.2236-3.768 4.7321-0.53538 0.59772-1.1051 1.1641-1.6763 1.7278-1.8498 1.8257-3.6767 3.3264-5.9171 4.6548-0.41277 0.24473-2.4001 1.3142-3.1663 1.6762-0.47934 0.22647-0.99826 0.3627-1.4757 0.59313-0.40584 0.19585-0.01119 0.1073-0.2722 0.36102-0.07484 0.0728-0.17828 0.10923-0.2722 0.15474-1.0449 0.50638-2.1245 0.9063-3.1949 1.3539-0.70547 0.29497-0.40799 0.24123-1.2751 0.46419-0.66953 0.17216-1.3915 0.15329-2.0774 0.18052-0.14323 6e-3 -0.2865 0.0119-0.42984 0.0129-0.47755 3e-3 -0.95513 0-1.4327 0-0.0095 0-0.02832-0.01-0.02863 0-0.0095 0.30071 0 0.60172 0 0.90258"/>
  <path d="m15.618 114.89c-1.1149-0.30101-0.85116-0.30908-1.7049-0.34814-0.09541-4e-3 -0.19921-0.0387-0.28654 0-1.1403 0.50498-1.8575 1.9119-2.407 2.9528-0.26486 0.50171-0.54594 0.99548-0.78796 1.5086-0.61202 1.2976-1.1306 2.6612-1.4041 4.0745-0.13761 0.71127-0.136 2.4227-0.14324 2.927-0.016813 1.1706-0.012614 2.5952 0.6017 3.6232 0.20149 0.33717 0.42406 0.6635 0.67335 0.96704 0.99185 1.2077 3.037 1.9416 4.5703 2.0373 1.5428 0.0962 2.7068-0.86848 3.5245-2.076 0.52812-0.77987 1.0223-1.8207 1.3181-2.7206 0.22348-0.67997 0.31313-1.6992 0.37247-2.3338 0.01415-0.15139 0.09904-1.5544 0.05731-1.831-0.20728-1.3738-0.2564-0.94451-0.48708-1.8954-0.20432-0.84223-0.21426-1.1899-0.4728-1.9212-0.10558-0.29864-0.61956-1.3369-0.65907-1.4183-0.30962-0.6386-0.64055-1.2678-0.94554-1.9083-0.09274-0.19475-0.11241-0.45291-0.28654-0.58023-0.15503-0.11336-0.34507-0.17224-0.50148-0.28368-0.35004-0.24941-0.68769-0.51576-1.0315-0.77364z"/>
  <path d="m83.671 114.11c-0.4919-0.10745-0.97314-0.29179-1.4757-0.32235-0.22396-0.0136-0.44263 0.096-0.64472 0.19342-0.53205 0.25664-1.0444 0.55409-1.5473 0.8639-0.57244 0.35262-1.1671 0.68276-1.6763 1.1218-1.6219 1.3984-1.956 2.0336-2.8941 3.9069-0.40805 0.81482-0.82286 1.6312-1.1318 2.4886-0.31758 0.88128-0.35762 3.0694-0.30088 3.7264 0.09288 1.0754 0.9848 2.3798 1.5043 3.159 0.68146 1.0222 1.2356 1.4211 2.4786 1.9212 0.5992 0.24108 2.2968 0.66742 3.1233 0.48997 1.4217-0.30527 3.4308-1.4596 4.2694-2.6562 0.19058-0.27191 0.34554-0.5701 0.4728-0.8768 0.35051-0.8447 0.87574-2.2115 1.0745-3.2364 0.11838-0.61046 0.39466-2.0576 0.28654-2.8109-0.20518-1.4295-0.39101-1.6711-0.67335-2.7722-0.16002-0.62407-0.2444-1.311-0.53011-1.8954-0.62695-1.2824-1.4257-2.1798-2.3353-3.3009z"/>
  <path d="m81.307 103.99c-0.31996-0.40402-0.76804-0.73372-0.95989-1.212-0.17803-0.44387-0.06175-0.95453-0.10027-1.4312-0.01879-0.23256-0.03727-0.46551-0.07165-0.69629-0.08028-0.53891-0.1976-1.072-0.2722-1.6117-0.20578-1.489-0.14347-3.0052-0.28654-4.5-0.06516-0.68081-0.15796-1.3587-0.24357-2.0373-0.03857-0.30575-0.10492-0.60824-0.12896-0.91548-0.14716-1.8807-0.08593-3.7763-0.08593-5.6605v-6.9499-3.4685c0-0.9403 0.02218-2.2559-0.07165-3.1848-0.14693-1.4546-0.30799-1.6834-0.48714-3.0043-0.09127-0.67294-0.16448-1.3484-0.22923-2.0244-0.09605-1.0028-0.08165-2.0139-0.17192-3.0172-0.04598-0.51109-0.24859-1.4933-0.31516-2.0373-0.04154-0.33944-0.25888-2.2002-0.27226-2.9012-0.04505-2.3615 0-4.7299 0-7.0917 0-0.93071 8e-3 -2.5528-0.04297-3.3396-0.02085-0.32169-0.10726-0.63575-0.15758-0.95416-0.10728-0.67874-0.21544-1.3574-0.31522-2.0373-0.13871-0.94511-0.294-2.1607-0.35819-3.0946-0.04692-0.68271 0.09996-2.4192 0.12896-2.7464 0.05687-0.64188 0.15261-1.2798 0.21489-1.9212 0.0699-0.71988 0.04303-1.3782 0.04303-2.1146 0-0.2106 0.02989-0.42334 0-0.63181-0.06606-0.46078-0.2225-0.9057-0.28654-1.3668-0.61471-4.4255 0.21724 0.72301-0.11462-2.0502-0.07129-0.59578-0.18562-1.1856-0.27225-1.7794-0.05245-0.35948-0.22944-1.838-0.25786-2.0115-0.64794-3.957 0.08169 1.0698-0.38681-2.1533-0.0212-0.14584-0.03821-0.29226-0.05731-0.4384-0.10029-0.79514-0.18393-1.5925-0.30088-2.3854-0.05651-0.38308-0.24956-0.86628-0.34384-1.2249-0.04346-0.16531-0.0624-0.3362-0.10033-0.50287-0.09692-0.42583-0.19013-0.72418-0.30082-1.1476-0.09612-0.36766-0.016-0.1964-0.1433-0.42551-0.0191-0.03438-0.02659-0.07858-0.05731-0.10315-0.01865-0.01492-0.0865-0.01871-0.07165 0 0.0351 0.04422 0.09011 0.07135 0.1433 0.09026 0.33513 0.11915 0.67876 0.21293 1.0172 0.32235 0.98083 0.3171 0.29017 0.17913 2.0918 0.36104 1.5079 0.15225 3.0281 0.14183 4.5417 0.14183h1.619c0.27698 0 0.55542-0.02848 0.83093 0 0.43367 0.04483 0.85605 0.17184 1.2894 0.2192 0.23738 0.02594 0.47788-0.01201 0.71637 0 0.44488 0.0224 0.88752 0.07978 1.3324 0.10315 0.20986 0.01103 0.4208-0.01451 0.63044 0 0.10231 0.0071 0.20055 0.04298 0.30082 0.06447 0.13372 0.0086 0.26724 0.02115 0.40115 0.02578 1.0235 0.03542 1.9422-0.53211 2.9084-0.77364 0.3138-0.07845 0.63913-0.10059 0.95994-0.14183 0.4418 0 0.0087 0.01372 0.18621-0.01289 0.02072-0.0031 0.06121-0.04637 0.05731-0.02579-0.18084 0.95287-0.04754 0.23328-0.44412 1.457-0.50806 1.5677-0.96036 3.2002-1.2608 4.8224-0.08439 0.4557-0.12958 0.91816-0.17192 1.3797-0.08663 0.94431-0.16418 1.8898-0.21489 2.8367-0.02574 0.48071-0.01275 0.96274-0.01434 1.4441-0.0032 0.96705 0 1.9341 0 2.9012v4.8353c0 1.6934 0.0412 3.3873 0 5.0803-0.07816 3.212-0.27807 6.4026-0.51577 9.6061-0.09665 1.3026-0.23601 2.6024-0.30088 3.9069-0.07367 1.4815-0.08565 2.9654-0.11462 4.4485-0.03912 2.0026-0.05283 4.0057-0.07165 6.0086-7e-3 0.74782-0.03878 1.4967 0 2.2436 0.0095 0.18353 0.47409 4.893 0.40115 5.5831-0.1091 1.0323-0.76198 3.0289-1.0602 4.2035-0.40518 1.596-0.79724 3.3032-1.0746 4.9255-0.05605 0.32788-0.06685 0.66189-0.10027 0.99284-0.07163 0.70917-0.17244 1.416-0.21489 2.1275-0.01635 0.27414-0.01434 1.8512-0.01434 2.437 0 0.30516 0.02436 0.61129 0 0.91548-0.01406 0.17555-0.07426 0.34433-0.11462 0.51575-0.07904 0.33576-0.17293 0.66811-0.24357 1.0057-0.32583 1.5572-0.52848 3.1488-0.67335 4.7321-0.05455 0.59622-0.0833 1.495-0.18626 2.0373-0.08475 0.44639-0.24869 0.87421-0.35819 1.3152-0.0816 0.32863-0.14369 0.6618-0.21489 0.99284-0.11074 0.51489-0.2281 1.0595-0.27226 1.586-0.01979 0.23604 0.03123 0.50121 0 0.50287-0.40984 0.0217-0.39873-0.0423-0.94554-0.20631-0.49925-0.14976-0.99526-0.36254-1.5043-0.47707-0.81193-0.18267-1.6381-0.26482-2.4643-0.36104z"/>
  <path d="m9.3853 107.5c0.80201-0.0754 1.407-0.16253 2.235-0.0903 0.36801 0.0321 0.72205 0.16247 1.0888 0.20631 0.24661 0.0295 0.49739-7e-3 0.745 0.0129 0.13578 0.0107 0.26549 0.0659 0.40121 0.0774 0.34737 0.0293 0.69721 0 1.0458 0 0.12896 0 0.26013-0.0238 0.38687 0 1.082 0.20346 0.20643 0.18051 0.8023 0.18051 0.17821 0 1.4301 6e-3 1.4327 0 0.1378-0.31033 0-0.67909 0-1.0186 0-0.79513 0.05873-1.5924 0-2.3854-0.02308-0.31154-0.17769-0.60392-0.20055-0.91548-0.12975-0.8725 0.05797-1.7555 0-2.6304-0.04424-0.66762-0.12639-1.3322-0.18626-1.9986-0.07705-0.85759-0.20241-2.5263-0.24357-3.1719-0.07923-1.2429-0.0161-0.87068-0.05731-2.2178-0.04232-1.3835-0.08593-2.6071-0.08593-3.9972 0-0.98854-0.0535-1.9785 0-2.9656 0.02324-0.42872 0.1206-0.85025 0.17192-1.2765 0.18208-1.5123 0.37498-3.0234 0.53005-4.5387 0.10759-1.0513 0.20975-3.847 0.24357-4.5774 0.04796-1.0358 0.11924-2.2356 0.15758-3.2364 0.026-0.67859 0-1.3582 0-2.0373 0-0.27077-0.02295-0.54252 0-0.81232 0.05358-0.62987 0.15655-1.2546 0.22923-1.8825 0.1461-1.2622 0.25906-2.5282 0.40121-3.7909 0.05137-0.4563 0.13812-0.90884 0.17192-1.3668 0.13698-1.8558 0.10486-3.7057 0.31516-5.5573 0.09769-0.86017 0.30324-1.7058 0.40115-2.5659 0.04092-0.3595 0.04435-0.72231 0.07165-1.0831 0.07708-1.019 0.18837-2.0355 0.24357-3.0559 0.11339-2.0961 0.17672-4.1959 0.28654-6.2923 0.03993-0.76218 0.14754-2.0112 0.21489-2.6949 0.03224-0.32729 0.04238-0.6591 0.11462-0.97995 0.07658-0.34018 0.2341-0.65745 0.3295-0.99285 0.21037-0.73957 0.41375-1.4816 0.58742-2.2307 0.07969-0.34371 0.11348-0.69647 0.17192-1.0444 0.20364-1.2123 0.29443-1.6117 0.44418-2.9527 0.10839-0.97063 0.10027-1.9645 0.10027-2.9398v-1.2636c0-0.2106-0.01852-0.42202 0-0.63181 0.06193-0.70133 0.14144-1.3708 0.35819-2.0373 0.09532-0.29309 0.22825-0.57281 0.3295-0.8639 0.28904-0.83099 0.08509-0.38662 0.34384-1.1734 0.69074-2.1001 0.05921-0.16972 0.68769-1.7536 0.26001-0.65526 0.45712-1.3374 0.70203-1.9986 0.02408-0.06501 0.08986-0.23179 0.10027-0.33525 0.02085-0.20706 0-0.42374 0-0.63181 0-0.10986 1.17e-4 -0.21919 0-0.2192-0.30633-0.02759-0.61433 0.04804-0.91692 0.10315-0.14599 0.02659-0.28198 0.10275-0.42978 0.11605-0.2854 0.02569-0.57311 0-0.85967 0h-1.6046c-0.52064 0-1.5108-0.01245-1.9771 0.05157-0.1894 0.026-0.3545 0.15837-0.54439 0.18052-2.7185 0.31717-0.01472-0.15236-1.4184 0.02579-0.2353 0.02986-0.46637 0.0892-0.70203 0.11604-0.1424 0.01622-0.28686 0.0022-0.42978 0.01289-1.2511 0.09383-2.5015 0.18729-3.7537 0.27078-0.78283 0.05219-1.5796 0.0129-2.3639 0.0129h-3.5244-0.58742c-0.025208 0-0.31369-0.0069-0.31522 0-0.17903 0.80482 0.1102 1.8025 0.30088 2.5788 0.22705 0.92438 0.60346 1.7908 0.8883 2.6949 0.031817 0.10098 0.037249 0.2093 0.071591 0.30946 0.085289 0.24873 0.21046 0.48326 0.28654 0.73496 0.11294 0.37367 0.48257 2.2772 0.50148 2.3725 0.111 0.55947 0.24399 1.1147 0.34384 1.6762 0.035612 0.20027 0.045723 0.40427 0.071649 0.60602 0.1185 0.92215 0.22854 1.8344 0.31516 2.7593 0.13469 1.4382 0.29157 2.8866 0.31522 4.3324 0.013484 0.82436 0 1.651 0 2.4757v1.3152c0 0.2149-0.019811 0.43072 0 0.6447 0.0088 0.09508 0.33573 2.674 0.37247 3.2493 0.047977 0.75137 0.052364 1.5051 0.10027 2.2565 0.21464 3.3662-0.010457-1.718 0.18626 1.8438 0.065467 1.1853 0.042966 2.3724 0.042966 3.5588 0 0.46419-0.029705 0.92933 0 1.3926 0.027748 0.43272 0.13504 0.85737 0.17198 1.2894 0.020504 0.23981 0 0.48138 0 0.72206v1.5215 4.5 2.9527c0 0.57594-0.050592 1.1541 0 1.7278 0.023602 0.26765 0.4998 2.5549 0.55873 2.8883 0.20828 1.1783 0.071033 0.80008 0.25785 2.1662 0.019178 0.14024 0.072727 0.27378 0.10033 0.41261 0.081193 0.40833 0.32753 1.9202 0.35813 2.1404 0.17705 1.2747 0.13304 2.5987 0.1433 3.8811 0.0098 1.2197 0.07156 2.4471 0.17192 3.6619 0.09265 1.1214 0.20507 2.2454 0.31522 3.3653 0.08687 0.88332 0.20602 1.7698 0.25786 2.6562 0.05161 0.88249 0.07088 1.7727 0.10027 2.6562 0.03556 1.0687 0.10198 2.1941 0.04303 3.2622-0.08711 1.5781-0.27791 3.1463-0.41549 4.7192-0.02515 0.28749 0 0.58792 0 0.8768v1.6376c0 0.24029 0.05218 0.59765 0 0.82521-0.04176 0.18212-0.12973 0.35059-0.18626 0.52867-0.08198 0.25824-0.17351 0.55079-0.22923 0.81232-0.10957 0.51425-0.18171 0.99485-0.35819 1.4957-0.03333 0.0946-0.07178 0.18751-0.10027 0.28367-0.017126 0.0578-0.0091 0.1668-0.042966 0.2192-0.18505 0.28661-0.51891 0.50391-0.58742 0.83812-0.12172 0.59384 0.028644 1.212 0.042966 1.818"/>
 </g>
</svg>
