<?xml version="1.0" encoding="UTF-8"?>
<svg version="1.1" viewBox="0 0 100 100" xmlns="http://www.w3.org/2000/svg">
 <g fill="none" stroke="#000" stroke-width="1px">
  <path d="m36.92 88.236c0.12815-2.6026 0.06942-0.93934 0.06942-4.9923 0-0.93538 0.04785-1.872 0-2.8062-0.14096-2.7517-0.45968-5.4933-0.5662-8.2466-0.08232-2.1277 0.19285-4.2674 0-6.3879-0.28755-3.1618-0.976-6.2744-1.4372-9.4156-0.19873-1.3535-0.37649-2.7102-0.54254-4.0681-0.28645-2.3426-0.60662-4.6822-0.8149-7.033-0.06367-0.71862 0-1.4429 0-2.1643v-3.9554-14.309-10.025-3.033-0.50655c0-0.05362-0.01927-0.11083 0-0.16087 0.09228-0.23964 0.66261-0.10076 0.69-0.10076h1.5049c0.28142 0 0.56917-0.05935 0.84425 0 1.8992 0.40976 7.8417 2.2774 8.8382 2.6608 0.63485 0.24423 1.1663 0.70037 1.7494 1.0505 0.28298 0.16991 0.58716 0.30867 0.84895 0.5097 0.76271 0.58569 1.4786 1.2299 2.2177 1.8452 0.37389 0.31125 0.75302 0.61634 1.1212 0.93432 1.1891 1.027 4.8186 4.1675 6.1349 5.4714 1.1887 1.1776 2.5027 2.4913 3.4053 3.956 1.5727 2.5522 2.5448 5.4632 3.0216 8.4169 0.08015 0.49657-0.01557 1.0062 0 1.509 0.22104 7.139 0.20018 2.7822 0.20018 6.5067v5.7626 2.799c0 0.22513 0.04621 0.45506 0 0.6754-0.76538 3.6496-0.45449 1.3895-1.4296 4.6034-0.21345 0.70349-0.30021 1.4418-0.52053 2.1432-0.14593 0.46456-0.38893 0.8929-0.57457 1.3431-0.70845 1.718-0.99958 2.5347-1.6648 4.0404-0.28755 0.65087-0.60785 1.2875-0.8781 1.9457-0.13696 0.33359-0.20908 0.69114-0.34211 1.0263-0.67622 1.7038-1.4145 3.3836-2.4611 4.8966-0.20707 0.29934-0.46025 0.56413-0.6822 0.85261-0.34321 0.44608-0.62475 0.94342-1.0131 1.3508-0.75372 0.79066-1.6122 1.4747-2.4008 2.2305-0.57757 0.55352-1.1155 1.1477-1.6972 1.6969-0.43764 0.4132-0.8933 0.80762-1.3591 1.1887-0.15706 0.1285-0.36306 0.19421-0.50655 0.3377-0.1435 0.1435-0.19421 0.36306-0.3377 0.50655-0.1435 0.1435-0.3886 0.17257-0.50655 0.3377-0.17617 0.24664-0.16957 0.59206-0.3377 0.84425-0.17661 0.26492-0.45027 0.45027-0.6754 0.6754-0.93625 0.93625-1.3624 1.4439-2.3639 2.1951-0.32469 0.24352-0.68487 0.43668-1.0131 0.6754-0.31221 0.22706-1.143 0.94654-1.5197 1.182-0.21345 0.1334-0.45027 0.22513-0.6754 0.3377-0.3377 0.16885-0.6754 0.3377-1.0131 0.50655-0.22513 0.11257-0.45027 0.22513-0.6754 0.3377-0.22373 0.05628-0.45917 0.07793-0.6712 0.16885-0.18418 0.07898-0.31405 0.25938-0.50024 0.33348-0.10459 0.04162-0.22513 0-0.3377 0h-0.27339-0.38152c-0.02568 0-0.06192 0.02075-0.07705 0-0.14939-0.20495-0.26424-0.43298-0.39636-0.64946z"/>
  <path d="m16.768 78.378c-0.27203 0-0.56527-0.10529-0.8161 0-0.7835 0.32888-4.4016 2.9002-4.5238 3.0649-0.60844 0.82025-0.60277 1.9518-0.88226 2.9341-0.01521 0.05346-0.03481 0.12341 0 0.16674 0.41782 0.51997 0.52672 0.62478 1.011 0.84002 0.3917 0.17409 0.7698 0.3888 1.182 0.50655 0.70241 0.20069 1.1813 0.16885 1.8574 0.16885 0.33629 0 0.69091 0.10953 1.0089 0 1.5039-0.51806 1.8991-1.4645 2.7109-2.8834 0.11624-0.20315 0.10884-0.45546 0.17376-0.68033 0.04936-0.171 0.11245-0.33774 0.16885-0.50655 0.16978-0.50816 0.37946-1.0047 0.50968-1.5244 0.0413-0.1648-0.02397-0.34149 0-0.50968 0.03273-0.22974 0.13062-0.44651 0.16885-0.6754 0.01843-0.11033 0.0793-0.25669 0-0.33559-0.7432-0.73937-0.96141-0.74063-1.8615-0.67643-0.23812 0.01698-0.46983 0.13246-0.70756 0.11067-3.1902-0.29235-0.46964-0.27952-1.2959-0.27952"/>
  <path d="m76.548 79.811c-1.4038 0-1.1432-0.11827-2.6632 0.5137-0.18738 0.07791-0.34924 0.20951-0.50655 0.3377-0.47517 0.38721-0.97571 0.75262-1.388 1.2062-0.12017 0.13219-0.10164 0.34324-0.17042 0.50812-0.2134 0.51161-0.50011 0.99377-0.6754 1.5197-0.0534 0.16018 0 0.3377 0 0.50655v1.182c0 0.96244-0.10068 0.62584 0.50655 1.6885 0.03949 0.06911 0.09357 0.143 0.16885 0.16885 0.1018 0.03495 0.21527 0 0.3229 0h0.5002 1.3191c0.22373 0 0.46866 0.09505 0.6712 0 0.68031-0.31927 1.2709-0.8025 1.9034-1.2083 0.17081-0.10957 0.3549-0.20285 0.50655-0.3377 0.35856-0.31883 0.67856-0.67854 1.0178-1.0178 0.05628-0.05628 0.13652-0.09611 0.16885-0.16885 0.52132-1.173 0.6078-1.3179 0.50655-2.5328-0.02383-0.286-0.0558-0.58047-0.16885-0.84425-0.06271-0.14632-0.2154-0.23579-0.3377-0.3377-0.47989-0.39991-1.1878-0.85135-1.6819-1.1839z"/>
  <path d="m75.801 75.666v-1.2453-2.9082c0-1.3926 0.08496-2.7878 0-4.1778-0.06653-1.0885-0.36887-2.1527-0.45342-3.2399-0.09622-1.2374-0.14447-6.06-0.46244-8.1159-0.26184-1.693-0.6732-3.3605-0.93713-5.0532-0.12324-0.79035-0.1413-1.5936-0.22335-2.3893-0.12596-1.2216-0.22919-2.4462-0.40065-3.6622-0.09674-0.68608-0.32452-1.3507-0.40325-2.0391l-0.4361-5.2996c-0.21122-0.91572-0.52103-1.8142-0.63364-2.7472-0.59218-4.9063 0.82342 0.0191-0.35708-5.5516-0.09942-0.46915-0.47096-0.85196-0.56905-1.3214-0.15409-0.73744-0.09404-1.5044-0.17784-2.2531-0.03192-0.28521-0.11167-0.56302-0.16885-0.84425-0.12239-0.60197-0.21137-1.2119-0.36986-1.8054-0.0782-0.29284-0.25976-0.55135-0.3377-0.84425-0.15041-0.56526-0.20869-1.1517-0.34479-1.7206-0.09684-0.40479-0.21362-0.80554-0.35337-1.1976-0.20354-0.571-0.53656-1.0984-0.6754-1.6885-0.09024-0.38351 0.0392-0.78993 0-1.182-0.04034-0.40341-0.27264-0.46134-0.16885-0.84425 0.05471-0.20186 0.63714-0.25304 0.76708-0.27746 0.10925-0.02053 0.2266 0.03051 0.3335 0 0.33561-0.09579 0.64983-0.26922 0.99332-0.33111 0.27696-0.0499 0.56284 0 0.84425 0h0.84425 12.676c0.17184 0 0.41983 0.02652 0.57725 0 0.566-0.09536 1.1212-0.25034 1.6885-0.3377 0.16618-0.02559 0.33627 0 0.50441 0h0.6691 0.75476c0.05558 0 0.11509-0.02052 0.16675 0 0.27465 0.10912 0.0054 0.1228-0.0167 0.2365-0.16148 0.83165-0.26329 1.6738-0.38577 2.5121-0.21461 1.4689-0.39104 2.9435-0.62548 4.4094-0.65456 4.0929-0.59307 1.3872-1.9685 7.6893-0.11021 0.50495 0.07519 1.0392 0 1.5505-0.10573 0.71903-0.42953 1.3942-0.53867 2.1127-0.1277 0.84075-0.11987 1.6966-0.16885 2.5456-0.07402 1.2828-0.11166 2.5677-0.20014 3.8496-0.04885 0.70771-0.18901 1.4086-0.21172 2.1176-0.04794 1.4968 0 2.9952 0 4.4928 0 1.1659 0.06338 2.3335 0 3.4976-0.07246 1.3309-0.30937 2.6485-0.407 3.9778-0.03818 0.51982 0 1.0424 0 1.5637-0.11665 0.78034-0.27273 1.5558-0.34994 2.341-0.03972 0.40392 0.06969 0.81777 0 1.2176-0.1009 0.57889-0.39826 1.111-0.50655 1.6885-0.06224 0.33192 0 0.6754 0 1.0131-0.12228 0.9927-0.14516 2.0028-0.36685 2.9781-0.16037 0.70558-0.56904 1.3344-0.77125 2.0291-0.17004 0.58422-0.18883 1.2041-0.34125 1.7932-0.07814 0.30198-0.25554 0.57079-0.34755 0.86883-0.11257 0.45027-0.22514 0.90054-0.3377 1.3508-0.05628 0.11257-0.12905 0.21831-0.16885 0.3377-0.88754 0.38561-0.19515 1.0207-0.3377 1.5197-0.08327 0.29144-0.27195 0.54838-0.3377 0.84425-0.04884 0.21977 0.0373 0.45338 0 0.6754-0.02046 0.12178-0.13286 0.2116-0.16885 0.32972-0.02181 0.07156 0 0.14962 0 0.22443-0.1053 0.16158-0.23852 0.30808-0.3159 0.48474-0.13945 0.31836-0.22998 0.65624-0.3297 0.9892-0.06658 0.22231-0.1307 0.4465-0.16885 0.6754-0.0185 0.11104 0.05034 0.23702 0 0.3377-0.07119 0.14239-0.22513 0.22514-0.3377 0.3377-0.05091 0.0509-0.09235 0.11349-0.15273 0.1527-0.02304 0.01496-0.05494 0-0.08241 0h-0.47914c-0.42371 0-0.51717 0.02712-1.0047-0.16885-0.07385-0.02969-0.09766-0.13325-0.16885-0.16885-1.1562-0.5781-0.15298-0.05395-0.66275-0.16885-0.14425-0.03251-0.27916-0.10048-0.4239-0.13075-0.33024-0.06908-0.66434-0.11902-0.99835-0.16674-0.05572-8e-3 -0.12202 0.03122-0.16885 0-0.57675-0.3845-0.09851-0.3377-0.60198-0.3377-0.02392 0 0.05196 0.01341 0.07177 0 0.05868-0.03972 0.08712-0.11824 0.1503-0.15032 0.2855-0.145 0.58958-0.25011 0.88436-0.37516z"/>
  <path d="m11.479 74.391c0.27966-0.05558 0.56081-0.10411 0.83898-0.16674 0.21886-0.04928 0.43035-0.1311 0.65149-0.16885 0.27741-0.04735 0.56381 0.02337 0.84425 0 0.50791-0.04233 1.0182-0.07768 1.5197-0.16885 0.12382-0.02251 0.21669-0.13428 0.3377-0.16885 0.27595-0.07884 0.5641-0.10659 0.84425-0.16885 0.22654-0.05034 0.44515-0.13993 0.6754-0.16885 0.22128-0.02779 0.44604 0 0.66906 0 0.05628 0 0.11782 0.02374 0.16885 0 0.28763-0.13382 0.10405-0.42289 0.14696-0.67155 0.17545-1.0166 0.61406-3.0812 0.94323-4.2474 0.32092-1.1371 0.69905-2.2577 1.0077-3.3982 0.16188-0.59807 0.24524-1.2154 0.4032-1.8145 0.23188-0.87949 0.58266-1.7281 0.76572-2.619 0.13297-0.64716 0.08028-1.3206 0.178-1.974 0.14177-0.94792 0.37249-1.8805 0.53961-2.8243 0.07575-0.42776 0.12099-0.8604 0.18884-1.2895 0.20136-1.2734 0.42763-2.5428 0.61876-3.8177 0.3081-2.0552 0.1365-1.7917 0.37814-4.3244 0.03311-0.34706 0.11086-0.68844 0.17198-1.0317 0.11344-0.63707 0.25455-1.2694 0.35168-1.9091 0.3424-2.2554-0.03824-1.1828 0.5357-4.0196 0.07693-0.38026 0.30879-0.72173 0.36268-1.1059 0.12748-0.90882 0.09638-1.8333 0.17784-2.7474 0.17614-1.9765 0.25251-0.81069 0.71349-3.3411 0.05044-0.27686-0.02337-0.56381 0-0.84425 0.03305-0.39661 0.13282-0.7856 0.16885-1.182 0.02038-0.22421 0-0.45027 0-0.6754v-1.0131-2.1951-10.506c0-0.16755-0.03252-0.7173 0-0.93055 0.0048-0.03116 0.3998-1.2106 0.01744-1.3333-0.10165-0.03262-0.21351 0-0.32026 0h-1.0131c-0.56284 0-1.1276-0.04674-1.6885 0-3.0859 0.25716 2.267 0.16885-2.1951 0.16885h-2.3639-0.84425c-0.11116 0-0.22346 0.01578-0.3335 0-0.28409-0.04073-0.56583-0.09924-0.84425-0.16885-0.17267-0.04317-0.32994-0.14677-0.50655-0.16885-0.27924-0.03491-0.56423 0.028-0.84425 0-2.2404-0.22404 0.54119-0.16885-1.6885-0.16885h-0.90617c-0.2793 0-0.56002 0.02811-0.83791 0-0.50151-0.05072-1.0014-0.11672-1.5028-0.16885-0.068583-0.0071-0.14126 0.02126-0.20686 0-0.32474-0.10525-0.63542-0.25466-0.96574-0.34083-0.058346-0.01522-0.4318-0.07267-0.46232 0.12152-0.033716 0.21456 0 0.43438 0 0.65157v3.2082 3.8836c0 0.76057-0.031289 1.5218 0 2.2817 0.026234 0.63716 0.13955 1.2685 0.1724 1.9053 0.0459 0.88998 0 1.7823 0 2.6735v6.1746 1.6885c0 0.81014-0.11121 1.6279 0 2.4304 0.14217 1.0258 0.59701 1.9903 0.75451 3.0138 0.09579 0.62251-0.073654 1.264 0 1.8895 0.042404 0.36012 0.28386 0.67442 0.34401 1.032 0.056018 0.33302 0 0.67541 0 1.0131 0.056284 0.39398 0.090799 0.7917 0.16885 1.182 0.091023 0.45511 0.24036 0.897 0.3377 1.3508 0.033535 0.15633 0.33267 2.0052 0.34438 2.1266 0.0781 0.80998 0.05059 1.6303 0.16885 2.4354 0.51206 3.486 0.28445-1.7226 0.53932 2.5564 0.03397 0.5704 0 1.1428 0 1.7142v1.8729 0.84214c0 0.16815-0.03302 0.33957 0 0.50444 0.08045 0.40178 0.2754 0.77697 0.3377 1.182 0.05135 0.33377-0.06733 0.68218 0 1.0131 0.05165 0.25384 0.28479 0.44376 0.34755 0.69509 0.1117 0.44728 0.11212 0.9152 0.16885 1.3727 0.05584 0.45032 0.14631 0.89759 0.16885 1.3508 0.03385 0.68075 0 1.3632 0 2.0448v2.7171 1.5378c0 0.22205-0.02467 0.44548 0 0.66616 0.22404 2.0041 0.16885-0.30947 0.16885 1.6885 0 0.27156 0.02269 0.72447-0.16885 0.89068-0.13844 0.12013-0.36573-0.02501-0.5486-0.03751z"/>
 </g>
</svg>
