<?xml version="1.0" encoding="UTF-8"?>
<svg width="100" height="150" version="1.1" viewBox="0 0 100 150" xmlns="http://www.w3.org/2000/svg">
 <g fill="none" stroke="#000">
  <path d="m47.5 25v50" stroke-width="2"/>
  <path d="m52.5 75v-50" stroke-width="2"/>
  <path d="m47.5 65-7.5 2.5-12.5-2.5-12.5 10 7.5 17.5-2.5 17.5 12.5 5h12.5l7.5 7.5 12.5 2.5 10-10 7.5 2.5 5-10-2.5-15 2.5-10-5-12.5-10-5-7.5 5-12.5-5" stroke-width="3"/>
 </g>
 <path d="m21.965 96.25-1.9648 13.75 12.5 5h12.5l7.5 7.5 12.5 2.5 10-10 7.5 2.5 5-10-1.875-11.25z"/>
</svg>
