<?xml version="1.0" encoding="UTF-8"?>
<svg version="1.1" viewBox="0 0 100 150" xmlns="http://www.w3.org/2000/svg">
 <g>
  <path d="m32.143 75c2.775 2.775 3.5865 5.5502 3.8258 8.3252a19.643 19.643 0 0 0-3.2411 0.976c-5.0109-3.9332-10.252-3.1677-17.729 4.3092 3.9057 0 6.4379 1.3746 8.5631 3.1551a19.643 19.643 0 0 0-1.5914 3.0124c-6.3113 0.76855-9.47 5.0164-9.47 15.579 2.775-2.775 5.5502-3.5865 8.3252-3.8258a19.643 19.643 0 0 0 0.976 3.2411c-3.9332 5.0109-3.1677 10.252 4.3092 17.729 0-3.9057 1.3746-6.4379 3.1551-8.563a19.643 19.643 0 0 0 3.0124 1.5914c0.76855 6.3113 5.0164 9.47 15.579 9.47-2.775-2.775-3.5865-5.5502-3.8258-8.3252a19.643 19.643 0 0 0 3.2411-0.97601c5.0109 3.9332 10.252 3.1677 17.729-4.3092-3.9057 0-6.4379-1.3746-8.5631-3.1551a19.643 19.643 0 0 0 1.5914-3.0124c6.312-0.76822 9.47-5.0158 9.47-15.579-2.7602 2.7602-5.5205 3.5785-8.2807 3.8227a19.643 19.643 0 0 0-0.99135-3.2764c3.8995-4.9994 3.1196-10.233-4.3383-17.691 0 3.9031-1.3732 6.4342-3.1521 8.5585a19.643 19.643 0 0 0-3.0186-1.6144c-0.77761-6.2928-5.0288-9.4424-15.576-9.4424zm7.8571 11.786a15.714 15.714 0 0 1 15.714 15.714 15.714 15.714 0 0 1-4.5992 11.109l-0.0061 6e-3a15.714 15.714 0 0 1-11.109 4.5992 15.714 15.714 0 0 1-11.109-4.5992 15.714 15.714 0 0 1-0.0061-5e-3 15.714 15.714 0 0 1-4.5992-11.109 15.714 15.714 0 0 1 4.5992-11.109 15.714 15.714 0 0 1 0.0061-0.0061 15.714 15.714 0 0 1 11.109-4.5991z"/>
  <path d="m52.143 20c2.775 2.775 3.5865 5.5502 3.8258 8.3252a19.643 19.643 0 0 0-3.2411 0.97601c-5.0109-3.9332-10.252-3.1677-17.729 4.3092 3.9057 0 6.4379 1.3746 8.5631 3.1551a19.643 19.643 0 0 0-1.5914 3.0124c-6.3113 0.76855-9.47 5.0164-9.47 15.579 2.775-2.775 5.5502-3.5865 8.3252-3.8258a19.643 19.643 0 0 0 0.976 3.2411c-3.9332 5.0109-3.1677 10.252 4.3092 17.729 0-3.9057 1.3746-6.4379 3.1551-8.563a19.643 19.643 0 0 0 3.0124 1.5914c0.76855 6.3113 5.0164 9.47 15.579 9.47-2.775-2.775-3.5865-5.5501-3.8258-8.3252a19.643 19.643 0 0 0 3.2411-0.97601c5.0109 3.9332 10.252 3.1677 17.729-4.3092-3.9057 0-6.4379-1.3745-8.5631-3.1551a19.643 19.643 0 0 0 1.5914-3.0124c6.3119-0.76821 9.47-5.0158 9.47-15.579-2.7602 2.7602-5.5205 3.5786-8.2807 3.8227a19.643 19.643 0 0 0-0.99135-3.2764c3.8995-4.9994 3.1196-10.233-4.3383-17.691 0 3.9031-1.3732 6.4342-3.1521 8.5585a19.643 19.643 0 0 0-3.0186-1.6144c-0.77761-6.2928-5.0288-9.4424-15.576-9.4424zm7.8571 11.786a15.714 15.714 0 0 1 15.714 15.714 15.714 15.714 0 0 1-4.5992 11.109l-0.0061 0.0066a15.714 15.714 0 0 1-11.109 4.5991 15.714 15.714 0 0 1-11.109-4.5992 15.714 15.714 0 0 1-0.0061-0.0055 15.714 15.714 0 0 1-4.5992-11.109 15.714 15.714 0 0 1 4.5992-11.109 15.714 15.714 0 0 1 0.0061-0.0061 15.714 15.714 0 0 1 11.109-4.5991z"/>
 </g>
</svg>
