<?xml version="1.0" encoding="UTF-8"?>
<svg width="100" height="150" version="1.1" viewBox="0 0 100 150" xmlns="http://www.w3.org/2000/svg">
 <g fill="none" stroke="#000" stroke-linecap="square" stroke-width="3">
  <path d="m75 45h-5v60h5v15h-50v-15h5v-60h-5v-15h50z"/>
  <path d="m70 45h-40"/>
  <path d="m70 105h-40"/>
 </g>
 <circle cx="31.25" cy="37.5" r="1.875" fill="#000029"/>
 <g fill="none" stroke="#000" stroke-width="4">
  <circle cx="50" cy="75" r="12.5" stroke-linecap="square"/>
  <g>
   <path d="m50 87.5v-25"/>
   <path d="m39.175 81.25 21.651-12.5"/>
   <path d="m39.175 68.75 21.651 12.5"/>
  </g>
 </g>
 <g fill="#000029">
  <circle cx="38.75" cy="37.5" r="1.875"/>
  <circle cx="46.25" cy="37.5" r="1.875"/>
  <circle cx="53.75" cy="37.5" r="1.875"/>
  <circle cx="61.25" cy="37.5" r="1.875"/>
  <circle cx="68.75" cy="37.5" r="1.875"/>
 </g>
 <g>
  <circle cx="31.25" cy="112.5" r="1.875"/>
  <circle cx="38.75" cy="112.5" r="1.875"/>
  <circle cx="46.25" cy="112.5" r="1.875"/>
  <circle cx="53.75" cy="112.5" r="1.875"/>
  <circle cx="61.25" cy="112.5" r="1.875"/>
  <circle cx="68.75" cy="112.5" r="1.875"/>
 </g>
</svg>
