<?xml version="1.0" encoding="UTF-8"?>
<svg width="100" height="150" version="1.1" viewBox="0 0 100 150" xmlns="http://www.w3.org/2000/svg">
 <path d="m51.17 66 0.35938 1.7949c2.5173 12.586 2.8814 22.82-0.66211 36.504l-0.10156 0.38867 0.10547 0.38477c0.56693 2.0666 1.2208 4.2171 1.9746 6.4785l0.81641 2.4492h28.42l-0.6582-1.9746c-5.9367-17.81-5.923-29.381-2.9531-44.23l0.35938-1.7949zm3.5859 3h20.504c-2.5551 13.751-2.3719 25.661 2.7793 42h-22.213l-0.13281-0.39844c-0.70134-2.104-1.2996-4.0886-1.832-6.0078 3.3457-13.185 3.1093-23.675 0.89453-35.594z" color="#000000" style="-inkscape-stroke:none"/>
 <path d="m20 112.5c6-18 6-30 3-45h24c-3 15-3 27 3 45z" fill="none" stroke="#000" stroke-width="3"/>
 <path d="m77.5 33.75a6.25 6.25 0 0 0-5.2793 2.9102 6.25 6.25 0 0 0-2.2207-0.41016 6.25 6.25 0 0 0-6.25 6.25 6.25 6.25 0 0 0 0.42188 2.2148 6.25 6.25 0 0 0-2.9219 5.2852 6.25 6.25 0 0 0 0.12695 1.1758 6.25 6.25 0 0 0-2.627 5.0742 6.25 6.25 0 0 0 6.25 6.25 6.25 6.25 0 0 0 6.25-6.25 6.25 6.25 0 0 0-0.11328-1.1855 6.25 6.25 0 0 0 1.3438-1.3164 6.25 6.25 0 0 0 0.01953 2e-3 6.25 6.25 0 0 0 6.25-6.25 6.25 6.25 0 0 0-0.15039-1.3594 6.25 6.25 0 0 0 5.1504-6.1406 6.25 6.25 0 0 0-6.25-6.25z"/>
 <path d="m47.5 33.75a6.25 6.25 0 0 0-5.2793 2.9102 6.25 6.25 0 0 0-2.2207-0.41016 6.25 6.25 0 0 0-6.25 6.25 6.25 6.25 0 0 0 0.42188 2.2148 6.25 6.25 0 0 0-2.9219 5.2852 6.25 6.25 0 0 0 0.12695 1.1758 6.25 6.25 0 0 0-2.627 5.0742 6.25 6.25 0 0 0 6.25 6.25 6.25 6.25 0 0 0 6.25-6.25 6.25 6.25 0 0 0-0.11328-1.1855 6.25 6.25 0 0 0 1.3438-1.3164 6.25 6.25 0 0 0 0.01953 2e-3 6.25 6.25 0 0 0 6.25-6.25 6.25 6.25 0 0 0-0.15039-1.3594 6.25 6.25 0 0 0 5.1504-6.1406 6.25 6.25 0 0 0-6.25-6.25z"/>
</svg>
