<?xml version="1.0" encoding="UTF-8"?>
<svg width="100" height="150" version="1.1" viewBox="0 0 100 150" xmlns="http://www.w3.org/2000/svg">
 <g fill="none" stroke="#000">
  <path d="m53 67.5c2.5431 12.716 2.9145 23.289-0.68164 37.176 0.55929 2.0387 1.2052 4.1626 1.9512 6.4004l0.47461 1.4238h25.256c-6-18-6-30-3-45h-24z" stroke-width="3"/>
  <path d="m20 112.5c6-18 6-30 3-45h24c-3 15-3 27 3 45z" stroke-width="3"/>
  <path d="m77.5 33.75a6.25 6.25 0 0 0-5.2793 2.9102 6.25 6.25 0 0 0-2.2207-0.41016 6.25 6.25 0 0 0-6.25 6.25 6.25 6.25 0 0 0 0.42188 2.2148 6.25 6.25 0 0 0-2.9219 5.2852 6.25 6.25 0 0 0 0.12695 1.1758 6.25 6.25 0 0 0-2.627 5.0742 6.25 6.25 0 0 0 6.25 6.25 6.25 6.25 0 0 0 6.25-6.25 6.25 6.25 0 0 0-0.11328-1.1855 6.25 6.25 0 0 0 1.3438-1.3164 6.25 6.25 0 0 0 0.01953 2e-3 6.25 6.25 0 0 0 6.25-6.25 6.25 6.25 0 0 0-0.15039-1.3594 6.25 6.25 0 0 0 5.1504-6.1406 6.25 6.25 0 0 0-6.25-6.25z" stroke-linecap="round" stroke-linejoin="round" stroke-width="2"/>
  <path d="m47.5 33.75a6.25 6.25 0 0 0-5.2793 2.9102 6.25 6.25 0 0 0-2.2207-0.41016 6.25 6.25 0 0 0-6.25 6.25 6.25 6.25 0 0 0 0.42188 2.2148 6.25 6.25 0 0 0-2.9219 5.2852 6.25 6.25 0 0 0 0.12695 1.1758 6.25 6.25 0 0 0-2.627 5.0742 6.25 6.25 0 0 0 6.25 6.25 6.25 6.25 0 0 0 6.25-6.25 6.25 6.25 0 0 0-0.11328-1.1855 6.25 6.25 0 0 0 1.3438-1.3164 6.25 6.25 0 0 0 0.01953 2e-3 6.25 6.25 0 0 0 6.25-6.25 6.25 6.25 0 0 0-0.15039-1.3594 6.25 6.25 0 0 0 5.1504-6.1406 6.25 6.25 0 0 0-6.25-6.25z" stroke-linecap="round" stroke-linejoin="round" stroke-width="2"/>
 </g>
</svg>
