<?xml version="1.0" encoding="UTF-8"?>
<svg version="1.1" viewBox="0 0 100 150" xmlns="http://www.w3.org/2000/svg">
 <path d="m40 40c3.5319 3.5319 4.5646 7.0638 4.8691 10.596a25 25 0 0 0-4.125 1.2422c-6.3775-5.0059-13.048-4.0316-22.564 5.4844 4.9709 0 8.1937 1.7494 10.898 4.0156a25 25 0 0 0-2.0254 3.834c-8.0325 0.97815-12.053 6.3845-12.053 19.828 3.5319-3.5319 7.0638-4.5646 10.596-4.8691a25 25 0 0 0 1.2422 4.125c-5.0059 6.3775-4.0316 13.048 5.4844 22.564 0-4.9709 1.7494-8.1937 4.0156-10.898a25 25 0 0 0 3.834 2.0254c0.97815 8.0325 6.3845 12.053 19.828 12.053-3.5319-3.5319-4.5646-7.0638-4.8691-10.596a25 25 0 0 0 4.125-1.2422c6.3775 5.0059 13.048 4.0316 22.564-5.4844-4.9709 0-8.1937-1.7494-10.898-4.0156a25 25 0 0 0 2.0254-3.834c8.0334-0.97772 12.053-6.3838 12.053-19.828-3.513 3.513-7.0261 4.5545-10.539 4.8652a25 25 0 0 0-1.2617-4.1699c4.963-6.3629 3.9704-13.024-5.5215-22.516 0 4.9676-1.7477 8.189-4.0117 10.893a25 25 0 0 0-3.8418-2.0547c-0.98968-8.009-6.4003-12.018-19.824-12.018zm10 15a20 20 0 0 1 20 20 20 20 0 0 1-5.8535 14.139l-0.007812 0.007812a20 20 0 0 1-14.139 5.8535 20 20 0 0 1-14.139-5.8535 20 20 0 0 1-0.007812-0.007812 20 20 0 0 1-5.8535-14.139 20 20 0 0 1 5.8535-14.139 20 20 0 0 1 0.007812-0.007812 20 20 0 0 1 14.139-5.8535z"/>
</svg>
