<?xml version="1.0" encoding="UTF-8"?>
<svg width="100" height="150" version="1.1" viewBox="0 0 100 150" xmlns="http://www.w3.org/2000/svg">
 <g fill="none" stroke="#000">
  <g>
   <path d="m50 62.5a15 15 0 0 0-15 15 15 15 0 0 0 3.8408 10h22.318a15 15 0 0 0 3.8408-10 15 15 0 0 0-15-15z" stroke-linecap="round" stroke-linejoin="round" stroke-width="2.5"/>
   <g>
    <path d="m37.5 77.5h3.75" stroke-width=".625"/>
    <path d="m57.071 84.571-10.607-10.607" stroke-width="1.5"/>
    <path d="m39.175 71.25 3.2476 1.875" stroke-width=".75"/>
    <path d="m43.75 66.675 1.875 3.2476" stroke-width=".875"/>
    <path d="m50 65v3.75"/>
    <path d="m56.25 66.675-1.875 3.2476" stroke-width="1.125"/>
    <path d="m60.825 71.25-3.2476 1.875" stroke-width="1.25"/>
    <path d="m62.5 77.5h-3.75" stroke-width="1.375"/>
    <path d="m60.825 83.75-3.2476-1.875" stroke-width="1.5"/>
   </g>
  </g>
  <path d="m39.175 83.75 3.2476-1.875" stroke-width=".5px"/>
 </g>
 <circle cx="50" cy="77.5" r="1.875"/>
 <g fill="none" stroke="#000" stroke-linecap="square" stroke-width="3">
  <path d="m75 45h-5v60h5v15h-50v-15h5v-60h-5v-15h50z"/>
  <path d="m70 45h-40"/>
  <path d="m70 105h-40"/>
 </g>
 <g>
  <circle cx="31.25" cy="37.5" r="1.875"/>
  <circle cx="38.75" cy="37.5" r="1.875"/>
  <circle cx="46.25" cy="37.5" r="1.875"/>
  <circle cx="53.75" cy="37.5" r="1.875"/>
  <circle cx="61.25" cy="37.5" r="1.875"/>
  <circle cx="68.75" cy="37.5" r="1.875"/>
  <circle cx="31.25" cy="112.5" r="1.875"/>
  <circle cx="38.75" cy="112.5" r="1.875"/>
  <circle cx="46.25" cy="112.5" r="1.875"/>
  <circle cx="53.75" cy="112.5" r="1.875"/>
  <circle cx="61.25" cy="112.5" r="1.875"/>
  <circle cx="68.75" cy="112.5" r="1.875"/>
 </g>
</svg>
