<?xml version="1.0" encoding="UTF-8"?>
<svg width="100" height="150" version="1.1" viewBox="0 0 100 150" xmlns="http://www.w3.org/2000/svg">
 <g>
  <ellipse cx="50.5" cy="61" rx="3" ry="3"/>
  <path d="m50.5 25-4 24 1.4828 8.9a4 4 0 0 1 2.5172-0.9 4 4 0 0 1 2 0.5375v-32.538z"/>
  <path d="m46.5 61-28.177 16.267 1 1.7328 22.784-8.5359 6.9891-5.7531a4 4 0 0 1-2.5969-3.7109z"/>
  <path d="m54.45 60.372a4 4 0 0 1 0.05 0.62812 4 4 0 0 1-2.0094 3.4594l28.186 16.273 1-1.7328-18.784-15.464z"/>
  <path d="m51.248 64.897a4 4 0 0 1-0.74844 0.10312 4 4 0 0 1-0.15312-0.021875l-1.9719 1.6234-1.875 54.398h8l-1.9078-55.327z"/>
  <path d="m46.5 61-28.177 16.267 1 1.7328 22.784-8.5359 6.9891-5.7531a4 4 0 0 1-2.5969-3.7109z"/>
  <rect x="42.5" y="122" width="16" height="3"/>
 </g>
</svg>
