<?xml version="1.0" encoding="UTF-8"?>
<svg width="64" height="64" version="1.1" viewBox="0 0 64 64" xmlns="http://www.w3.org/2000/svg">
 <rect width="64" height="64" fill="#fff"/>
 <path d="m11.486 5.7499a105 105 0 0 1 0.74648 12.25 105 105 0 0 1-8.232 40.25h44.315a105 105 0 0 1-8.0829-40.25 105 105 0 0 1 0.79023-12.25z"/>
 <path d="m43.77 16.25c-0.01368 0.58641-0.03337 1.1729-0.03691 1.7596 0.02094 13.352 2.6749 26.569 7.812 38.894l0.56191 1.3467h7.8925a84 84 0 0 1-6.4668-32.2 84 84 0 0 1 0.63301-9.8h-10.396z"/>
</svg>
